<svg width="86" height="86" viewBox="0 0 86 86" fill="none" xmlns="http://www.w3.org/2000/svg">
<g clip-path="url(#clip0)">
<path d="M85.9861 38.0374C85.9129 37.341 85.5548 36.7059 84.9966 36.2831L78.1843 31.1229L80.6629 22.9445C80.8659 22.2743 80.7826 21.5501 80.4326 20.9437C80.0824 20.3373 79.4968 19.903 78.815 19.7437L70.4925 17.8005L69.4301 9.3211C69.3429 8.62638 68.9722 7.99852 68.4058 7.58699C67.8395 7.1753 67.1281 7.01691 66.4403 7.14859L58.0472 8.75841L53.6273 1.44421C53.2651 0.845063 52.671 0.422286 51.9862 0.276825C51.3013 0.131196 50.5865 0.275649 50.0123 0.675751L42.9999 5.56028L35.9874 0.675751C35.4128 0.275649 34.6982 0.131196 34.0132 0.276825C33.3283 0.422454 32.7343 0.844895 32.3722 1.44438L27.9528 8.75874L19.5597 7.14893C18.8722 7.01741 18.1605 7.17564 17.594 7.58733C17.0276 7.99902 16.6567 8.62655 16.5697 9.32144L15.5073 17.8008L7.18477 19.7441C6.50281 19.9033 5.91744 20.3377 5.56723 20.944C5.21701 21.5506 5.1337 22.2747 5.33677 22.9447L7.81498 31.1233L1.00335 36.2833C0.445187 36.7061 0.0870775 37.341 0.0138431 38.0374C-0.0592233 38.7338 0.159136 39.4293 0.617187 39.9589L6.20736 46.4225L2.08305 53.9072C1.74527 54.5205 1.67623 55.2463 1.89257 55.9123C2.10892 56.5779 2.59132 57.1247 3.22524 57.4221L10.9612 61.053L10.2374 69.5683C10.1781 70.266 10.4103 70.9572 10.8789 71.4776C11.3474 71.998 12.0105 72.301 12.7104 72.3151L21.255 72.4854L24.0569 80.5587C24.2865 81.2201 24.7797 81.7573 25.4193 82.042C26.0591 82.3267 26.7881 82.3339 27.4332 82.0622L35.3084 78.7426L41.1522 84.9783C41.631 85.4892 42.3 85.7791 43.0002 85.7791C43.7005 85.7791 44.3694 85.4892 44.8482 84.9783L50.692 78.7426L58.5667 82.0622C59.2119 82.3338 59.9409 82.3267 60.5807 82.042C61.2205 81.7571 61.7136 81.2205 61.9431 80.5588L64.7455 72.4854L73.2895 72.3151C73.9898 72.3012 74.6528 71.998 75.1212 71.4776C75.5897 70.9572 75.822 70.2662 75.7627 69.5683L75.0389 61.053L82.7754 57.4221C83.4092 57.1247 83.8917 56.5779 84.1081 55.9121C84.3244 55.2464 84.2555 54.5205 83.9174 53.9071L79.7926 46.4225L85.3833 39.9589C85.8408 39.4293 86.0592 38.7338 85.9861 38.0374ZM74.5045 47.3224L78.1763 53.9852L71.2894 57.2172C70.3298 57.6677 69.7521 58.6683 69.842 59.7245L70.4863 67.3046L62.8803 67.4563C61.8205 67.4774 60.8859 68.1564 60.5382 69.1578L58.0435 76.3448L51.0335 73.3896C50.0566 72.9777 48.9267 73.2179 48.2019 73.9914L42.9999 79.5421L37.7979 73.9913C37.309 73.4694 36.6356 73.1902 35.9492 73.1902C35.6183 73.1902 35.2841 73.2552 34.9661 73.3893L27.9558 76.3445L25.4614 69.1576C25.1138 68.156 24.1793 67.4769 23.1193 67.4559L15.5128 67.3043L16.1572 59.7242C16.247 58.668 15.6694 57.6674 14.7098 57.2169L7.82338 53.9847L11.4948 47.3217C12.0065 46.3932 11.8855 45.2444 11.1923 44.4425L6.21592 38.6888L12.2799 34.0953C13.125 33.4552 13.4819 32.3567 13.1745 31.342L10.9684 24.0614L18.377 22.3316C19.4094 22.0906 20.1822 21.2319 20.3142 20.1801L21.2599 12.6319L28.7313 14.0649C29.7724 14.2648 30.8277 13.7946 31.376 12.8872L35.3101 6.37627L41.5527 10.7243C42.4226 11.3302 43.5779 11.3302 44.4476 10.7243L50.6899 6.37627L54.6243 12.8874C55.1724 13.7946 56.2273 14.2648 57.269 14.0649L64.7404 12.6319L65.6861 20.1801C65.818 21.2319 66.5909 22.0906 67.6233 22.3316L75.0319 24.0614L72.8254 31.3418C72.5179 32.3563 72.8748 33.4552 73.7199 34.0953L79.7842 38.6888L74.8075 44.4425C74.1136 45.2447 73.9927 46.3938 74.5045 47.3224Z" fill="white"/>
<path d="M43.0001 18.7659C29.6371 18.7659 18.7659 29.6373 18.7659 42.9999C18.7659 56.3625 29.6375 67.2341 43.0001 67.2341C56.3627 67.2341 67.2343 56.3627 67.2343 43.0001C67.2343 29.6375 56.3628 18.7659 43.0001 18.7659ZM43.0001 62.169C32.4303 62.169 23.8311 53.5698 23.8311 43.0001C23.8311 32.4303 32.4303 23.8311 43.0001 23.8311C53.5698 23.8311 62.169 32.4303 62.169 43.0001C62.169 53.5698 53.5698 62.169 43.0001 62.169Z" fill="white"/>
<path d="M52.9293 35.7839C51.94 34.7947 50.3364 34.7947 49.3474 35.7839L40.2875 44.8436L36.6528 41.2091C35.6638 40.2199 34.0602 40.2203 33.0712 41.2091C32.0824 42.1981 32.0824 43.8017 33.0714 44.7907L38.4969 50.2161C38.9914 50.7106 39.6396 50.9578 40.2876 50.9578C40.9358 50.9578 41.584 50.7104 42.0783 50.2161L52.9291 39.3655C53.9181 38.3766 53.9181 36.7729 52.9293 35.7839Z" fill="white"/>
</g>
<defs>
<clipPath id="clip0">
<rect width="86" height="86" fill="white"/>
</clipPath>
</defs>
</svg>
