<svg width="86" height="86" viewBox="0 0 86 86" fill="none" xmlns="http://www.w3.org/2000/svg">
<path d="M78.863 53.2461C80.0623 51.9074 80.793 50.1404 80.793 48.207C80.793 44.0397 77.4017 40.6484 73.2344 40.6484H58.564C60.0169 36.2393 60.6367 30.3889 60.6367 27.8811V25.3633C60.6367 19.8069 56.115 15.2852 50.5586 15.2852H48.0391C46.8834 15.2852 45.8756 16.0713 45.5951 17.1933L44.2228 22.6842C42.2996 30.3738 36.1939 38.8579 29.8749 40.3998C28.768 37.5981 26.0352 35.6094 22.8438 35.6094H7.72656C6.33578 35.6094 5.20703 36.7381 5.20703 38.1289V83.4805C5.20703 84.8712 6.33578 86 7.72656 86H22.8438C25.8487 86 28.4489 84.238 29.6666 81.6916L38.3238 84.5773C41.154 85.5213 44.1036 86 47.0884 86H68.1953C72.3626 86 75.7539 82.6087 75.7539 78.4414C75.7539 77.4588 75.5658 76.5182 75.2231 75.6565C78.428 74.7814 80.793 71.8436 80.793 68.3633C80.793 66.43 80.0623 64.6629 78.863 63.3242C80.0623 61.9855 80.793 60.2185 80.793 58.2852C80.793 56.3518 80.0623 54.5848 78.863 53.2461ZM25.3633 78.4414C25.3633 79.8305 24.2329 80.9609 22.8438 80.9609H10.2461V40.6484H22.8438C24.2329 40.6484 25.3633 41.7789 25.3633 43.168V78.4414ZM68.1953 55.7656H73.2344C74.6235 55.7656 75.7539 56.8961 75.7539 58.2852C75.7539 59.6743 74.6235 60.8047 73.2344 60.8047H68.1953C66.8045 60.8047 65.6758 61.9334 65.6758 63.3242C65.6758 64.715 66.8045 65.8438 68.1953 65.8438H73.2344C74.6235 65.8438 75.7539 66.9742 75.7539 68.3633C75.7539 69.7524 74.6235 70.8828 73.2344 70.8828H68.1953C66.8045 70.8828 65.6758 72.0116 65.6758 73.4023C65.6758 74.7931 66.8045 75.9219 68.1953 75.9219C69.5844 75.9219 70.7148 77.0523 70.7148 78.4414C70.7148 79.8305 69.5844 80.9609 68.1953 80.9609H47.0884C44.6461 80.9609 42.2324 80.5696 39.9161 79.7969L30.4023 76.6257V45.449C34.3546 44.6982 38.223 42.1954 41.715 38.0987C45.1248 34.0977 47.8896 28.7932 49.1107 23.907L50.006 20.3242H50.5586C53.3368 20.3242 55.5977 22.5851 55.5977 25.3633V27.8811C55.5977 31.264 54.5395 37.7527 53.1856 40.6484H48.0391C46.6483 40.6484 45.5195 41.7772 45.5195 43.168C45.5195 44.5587 46.6483 45.6875 48.0391 45.6875H73.2344C74.6235 45.6875 75.7539 46.8179 75.7539 48.207C75.7539 49.5961 74.6235 50.7266 73.2344 50.7266H68.1953C66.8045 50.7266 65.6758 51.8553 65.6758 53.2461C65.6758 54.6369 66.8045 55.7656 68.1953 55.7656Z" fill="white"/>
<path d="M17.8047 75.9219C19.1962 75.9219 20.3242 74.7938 20.3242 73.4023C20.3242 72.0108 19.1962 70.8828 17.8047 70.8828C16.4132 70.8828 15.2852 72.0108 15.2852 73.4023C15.2852 74.7938 16.4132 75.9219 17.8047 75.9219Z" fill="white"/>
<path d="M53.0781 0C51.6867 0 50.5586 1.12808 50.5586 2.51953V7.72656C50.5586 9.11802 51.6867 10.2461 53.0781 10.2461C54.4696 10.2461 55.5977 9.11802 55.5977 7.72656V2.51953C55.5977 1.12808 54.4696 0 53.0781 0Z" fill="white"/>
<path d="M42.3886 11.1109L38.8255 7.54779C37.8417 6.56382 36.2463 6.56382 35.2624 7.54779C34.2784 8.53175 34.2784 10.1269 35.2624 11.1109L38.8255 14.674C39.8093 15.6578 41.4048 15.658 42.3886 14.674C43.3726 13.6901 43.3726 12.0949 42.3886 11.1109Z" fill="white"/>
<path d="M70.894 7.54779C69.9102 6.56382 68.3148 6.56382 67.3309 7.54779L63.7678 11.1107C62.7838 12.0947 62.7838 13.6899 63.7678 14.6739C64.7516 15.6578 66.3469 15.658 67.3309 14.674L70.894 11.1109C71.878 10.1269 71.878 8.53175 70.894 7.54779Z" fill="white"/>
</svg>
