<svg width="86" height="86" viewBox="0 0 86 86" fill="none" xmlns="http://www.w3.org/2000/svg">
<path d="M43 86C66.7482 86 86 66.7482 86 43C86 19.2518 66.7482 0 43 0C19.2518 0 0 19.2518 0 43C0 66.7482 19.2518 86 43 86Z" fill="#FEFEFE"/>
<path d="M43.0001 10.1016C61.1676 10.1016 75.8987 24.8326 75.8987 43.0001C75.8987 61.1676 61.1676 75.8987 43.0001 75.8987C24.8326 75.8987 10.1016 61.1676 10.1016 43.0001C10.1016 24.8326 24.8326 10.1016 43.0001 10.1016V10.1016Z" fill="#00913F"/>
<path d="M6.63963 44.9889L3.22829 43.8529L3.08496 41.8069L3.22113 41.7961L3.23188 41.9609C3.24263 42.1079 3.27846 42.2261 3.33579 42.3085C3.37521 42.3694 3.43613 42.416 3.52213 42.4483C3.58304 42.4698 3.73713 42.4698 3.98796 42.4554L7.30254 42.2225C7.56054 42.2046 7.72179 42.1795 7.78271 42.1473C7.84721 42.1186 7.89738 42.0577 7.94038 41.9681C7.98338 41.8821 8.00129 41.7674 7.99054 41.6277L7.97979 41.4629L8.11596 41.4557L8.29871 44.0823L8.16254 44.093L8.15179 43.9282C8.14104 43.7777 8.10521 43.663 8.04788 43.577C8.00846 43.5161 7.94754 43.4695 7.85796 43.4409C7.79704 43.4158 7.64296 43.4158 7.38854 43.4337L3.66188 43.6917L8.38471 45.3006L8.39188 45.3902L3.97004 47.6692L7.51396 47.4219C7.76121 47.404 7.91529 47.3861 7.96904 47.3682C8.09088 47.3288 8.18763 47.2535 8.25571 47.1389C8.32738 47.0242 8.35604 46.8558 8.33813 46.6229L8.47788 46.6157L8.59613 48.3357L8.45996 48.3464L8.45638 48.2963C8.45279 48.1816 8.42413 48.0813 8.38113 47.9881C8.33454 47.8914 8.27721 47.8233 8.21271 47.7767C8.14463 47.7337 8.05146 47.7014 7.93321 47.6835C7.90454 47.6799 7.77913 47.6835 7.55338 47.7014L4.36779 47.9236C4.11338 47.9415 3.95571 47.9666 3.89479 47.9953C3.83388 48.0311 3.78371 48.0884 3.74071 48.1744C3.69771 48.264 3.68338 48.3787 3.69054 48.5184L3.70129 48.6797L3.56513 48.6904L3.42179 46.6336L6.63963 44.9889V44.9889ZM8.07654 33.5652L7.64654 35.2924L8.06938 35.6184C8.21271 35.7259 8.33454 35.7904 8.43846 35.8191C8.57463 35.8514 8.69288 35.8191 8.78246 35.7259C8.83621 35.6722 8.90788 35.5181 8.99029 35.2673L9.12288 35.3031L8.71796 36.9299L8.58538 36.8977C8.59971 36.7149 8.56388 36.5501 8.47071 36.4104C8.38471 36.267 8.16971 36.0628 7.84004 35.8048L4.37138 33.0814L4.38929 33.0134L8.83979 32.2501C9.26263 32.1749 9.53854 32.096 9.66396 32.0136C9.76071 31.9491 9.83238 31.8452 9.87896 31.6983L10.0115 31.7305L9.42029 34.0991L9.29129 34.0669L9.31279 33.9701C9.35938 33.7802 9.36654 33.6369 9.33429 33.5473C9.30921 33.4864 9.25904 33.4469 9.18738 33.4254C9.14438 33.4183 9.09779 33.4147 9.04763 33.4183C9.02613 33.4147 8.92579 33.429 8.75021 33.4577L8.07654 33.5652V33.5652ZM7.77913 33.6225L5.91221 33.9307L7.41004 35.1024L7.77913 33.6225ZM8.12671 24.3023L8.00488 24.2342L9.34504 21.9122L9.46688 21.9839L9.38446 22.1236C9.30921 22.2526 9.27338 22.3673 9.27338 22.4712C9.27338 22.5429 9.29846 22.6145 9.35221 22.6898C9.39163 22.7435 9.52063 22.8331 9.73921 22.9585L11.8749 24.1948C12.2941 24.4349 12.5772 24.6534 12.717 24.8469C12.8603 25.0404 12.932 25.2805 12.9391 25.5708C12.9427 25.8574 12.8567 26.1513 12.6847 26.4487C12.4733 26.8178 12.2045 27.0579 11.8785 27.1725C11.556 27.2872 11.2765 27.28 11.04 27.1439C10.893 27.0579 10.7963 26.9396 10.7569 26.7927C10.7175 26.6494 10.7354 26.5096 10.8106 26.3734C10.8859 26.2444 10.9934 26.1584 11.126 26.1154C11.2621 26.076 11.3911 26.0904 11.513 26.162C11.5739 26.1979 11.624 26.2337 11.6599 26.2767C11.6778 26.2946 11.71 26.3627 11.7638 26.4702C11.814 26.5813 11.8605 26.6458 11.8964 26.6673C11.9537 26.6995 12.0182 26.6995 12.0899 26.6673C12.1974 26.6207 12.2905 26.5311 12.3658 26.3985C12.4195 26.3054 12.4375 26.2158 12.4267 26.1298C12.4124 26.0438 12.3658 25.9578 12.2798 25.8754C12.1938 25.7929 11.9215 25.6209 11.4664 25.3594L9.13363 24.0084C8.90788 23.8794 8.76096 23.8114 8.69288 23.8042C8.62121 23.797 8.54596 23.8185 8.46354 23.8651C8.37754 23.9117 8.30229 23.9977 8.23063 24.1195L8.12671 24.3023V24.3023ZM14.1861 16.0427L15.6625 17.4689L15.7341 17.3972C15.9563 17.1679 16.0423 16.9314 15.9993 16.6877C15.9563 16.4476 15.8058 16.1753 15.5514 15.8743L15.6517 15.7704L17.5509 17.605L17.4541 17.7054C17.2212 17.5298 17.0098 17.4115 16.8127 17.3506C16.612 17.2933 16.4472 17.2861 16.3146 17.3327C16.182 17.3829 16.0315 17.4904 15.8631 17.6659L16.888 18.6514C17.085 18.8449 17.214 18.9524 17.2785 18.9774C17.3395 19.0061 17.404 19.0097 17.4792 18.9882C17.5509 18.9703 17.6369 18.9094 17.7408 18.8054L17.9486 18.5904C18.2747 18.2536 18.4575 17.906 18.4969 17.5477C18.5399 17.1929 18.4431 16.8167 18.2066 16.4154L18.3034 16.3186L19.2995 17.5943L16.268 20.7297L16.1713 20.6329L16.2895 20.5147C16.3899 20.4072 16.4508 20.3069 16.4759 20.2065C16.4974 20.1349 16.4866 20.056 16.4508 19.9736C16.4293 19.9127 16.3254 19.7944 16.1426 19.6189L13.7561 17.3148C13.5913 17.1571 13.4874 17.0639 13.4408 17.0353C13.362 16.9923 13.2831 16.9815 13.2007 16.9959C13.086 17.0138 12.9714 17.0819 12.8567 17.2001L12.742 17.3219L12.6417 17.2252L15.5729 14.1901L16.6479 15.2257L16.5475 15.326C16.2358 15.1254 15.9778 15.0179 15.7735 14.9999C15.5693 14.982 15.3579 15.0358 15.1393 15.154C15.0103 15.2221 14.8132 15.3941 14.548 15.67L14.1861 16.0427V16.0427ZM26.4089 10.4849L27.104 12.1261L23.1875 14.2976L23.1194 14.1758L23.2663 14.0934C23.3953 14.0253 23.4849 13.9429 23.535 13.8569C23.578 13.7924 23.5924 13.7171 23.5816 13.6239C23.5745 13.563 23.5135 13.4197 23.3881 13.1975L21.7792 10.295C21.6574 10.0693 21.5642 9.93669 21.5105 9.89369C21.4567 9.84711 21.3815 9.82561 21.2847 9.82561C21.188 9.82202 21.0769 9.85786 20.955 9.92236L20.8081 10.0048L20.74 9.88294L23.0943 8.58219L23.1588 8.70044L22.9689 8.80794C22.8399 8.87961 22.7503 8.95844 22.6965 9.04802C22.6571 9.10894 22.6428 9.18419 22.65 9.27735C22.6535 9.34185 22.718 9.48519 22.8435 9.70736L24.3986 12.5167C24.524 12.7424 24.6172 12.8786 24.6781 12.9252C24.739 12.9754 24.8143 12.9933 24.9075 12.9789C24.972 12.9718 25.1081 12.9073 25.316 12.7926L25.685 12.5884C25.918 12.4594 26.09 12.3089 26.201 12.1404C26.3121 11.972 26.373 11.7678 26.3874 11.5241C26.4053 11.284 26.3659 10.9615 26.2763 10.5566L26.4089 10.4849V10.4849ZM34.1417 9.32036L34.1775 9.45294L31.6334 10.1374L31.5975 10.0012L31.7588 9.95819C31.8985 9.92236 32.006 9.86502 32.0777 9.79336C32.1315 9.74319 32.1637 9.67152 32.1745 9.58194C32.1888 9.51744 32.1601 9.36336 32.0956 9.11969L31.2356 5.9126C31.1711 5.66535 31.1138 5.51127 31.0708 5.45752C31.0278 5.40019 30.9597 5.36077 30.8665 5.33569C30.777 5.31061 30.6623 5.31777 30.5225 5.3536L30.3613 5.39661L30.3255 5.26402L32.8732 4.5796L32.909 4.71577L32.7478 4.75877C32.608 4.7946 32.497 4.85194 32.4253 4.9236C32.3715 4.97735 32.3393 5.04544 32.325 5.13861C32.3142 5.19952 32.3429 5.35361 32.4074 5.60086L33.2674 8.80436C33.3319 9.05161 33.3892 9.20569 33.4322 9.25944C33.4788 9.31677 33.5469 9.35619 33.6365 9.38127C33.7332 9.40636 33.8443 9.39919 33.9805 9.36335L34.1417 9.32036ZM41.8387 3.10327L41.9964 4.77669L41.8423 4.78744C41.742 4.37535 41.5449 4.04927 41.2439 3.80919C40.9465 3.57269 40.6347 3.46877 40.3086 3.49027C40.0542 3.50819 39.8607 3.5906 39.721 3.73394C39.5848 3.87727 39.5203 4.03852 39.531 4.21769C39.5418 4.32519 39.574 4.42552 39.6314 4.50794C39.7102 4.61902 39.8356 4.72652 40.0005 4.82686C40.1223 4.90211 40.4018 5.02752 40.8354 5.20669C41.4445 5.45394 41.8602 5.70119 42.086 5.94127C42.3081 6.18494 42.43 6.4716 42.4515 6.80485C42.4801 7.2241 42.344 7.59677 42.0358 7.92286C41.7276 8.24894 41.3227 8.43169 40.8175 8.46752C40.6598 8.47827 40.5093 8.47111 40.366 8.44961C40.2226 8.42452 40.0435 8.37794 39.8213 8.30627C39.6995 8.26327 39.6027 8.24536 39.5239 8.25252C39.4594 8.25611 39.3949 8.28477 39.3268 8.33852C39.2587 8.39227 39.205 8.47469 39.1691 8.57861L39.0294 8.58577L38.8968 6.6866L39.0365 6.67944C39.1799 7.20619 39.42 7.59677 39.7496 7.85836C40.0793 8.11636 40.4233 8.23461 40.7816 8.20952C41.0575 8.18802 41.2725 8.09844 41.4302 7.9336C41.5843 7.77235 41.6524 7.58961 41.638 7.38894C41.6309 7.27069 41.5915 7.15961 41.5198 7.05211C41.4481 6.94461 41.3442 6.84786 41.2116 6.75469C41.0719 6.66511 40.839 6.55044 40.4985 6.41069C40.0255 6.21719 39.6851 6.04877 39.4737 5.90544C39.2623 5.7621 39.0939 5.59369 38.9756 5.40736C38.8538 5.22102 38.7821 5.0096 38.7678 4.7731C38.7391 4.37177 38.861 4.0206 39.1369 3.71602C39.4128 3.41502 39.7747 3.25019 40.219 3.21794C40.3839 3.20719 40.5451 3.21435 40.6992 3.24302C40.8175 3.26452 40.9644 3.3111 41.1364 3.37919C41.3084 3.44727 41.4302 3.47952 41.4947 3.47594C41.5592 3.47235 41.6094 3.44727 41.6416 3.40427C41.6775 3.36127 41.7061 3.26452 41.7276 3.11402L41.8387 3.10327V3.10327ZM60.6906 7.37461L62.966 8.63594L62.9015 8.75777L62.7869 8.69327C62.6149 8.60011 62.4895 8.55352 62.4035 8.54994C62.321 8.54994 62.2494 8.57502 62.1849 8.6216C62.124 8.67177 62.02 8.82227 61.8839 9.07311L60.687 11.2339C60.4685 11.628 60.3538 11.9039 60.3395 12.0688C60.3287 12.2264 60.3681 12.3877 60.4577 12.5489C60.5473 12.7102 60.6978 12.8464 60.9056 12.961C61.1457 13.0936 61.3786 13.1545 61.6044 13.1402C61.8337 13.1259 62.0415 13.047 62.2279 12.9037C62.4178 12.7604 62.64 12.4558 62.9015 11.9864L63.8977 10.1911C64.0088 9.99044 64.0625 9.83994 64.0697 9.73244C64.0769 9.62494 64.0554 9.53894 64.0124 9.47086C63.9407 9.36694 63.8189 9.26661 63.6397 9.16627L63.7042 9.04444L65.2307 9.89011L65.1662 10.0119L65.073 9.96177C64.9476 9.89369 64.833 9.86144 64.7219 9.86502C64.6144 9.86861 64.5105 9.9116 64.4209 9.99044C64.3528 10.0442 64.2704 10.1624 64.17 10.3416L63.242 12.015C62.9553 12.5346 62.7116 12.8894 62.5181 13.0829C62.321 13.2728 62.038 13.391 61.6653 13.4376C61.2962 13.4878 60.8805 13.3839 60.4219 13.1294C60.042 12.918 59.7733 12.703 59.6228 12.4844C59.415 12.187 59.3146 11.9004 59.3146 11.6173C59.3182 11.3342 59.4221 11.0117 59.6264 10.6462L60.8232 8.48544C60.963 8.23102 61.0382 8.06619 61.0454 7.98736C61.049 7.91211 61.0275 7.83327 60.9773 7.76161C60.9307 7.68277 60.8125 7.59677 60.6225 7.49644L60.6906 7.37461V7.37461ZM70.8601 19.411L69.4555 20.5039L66.3451 17.2825L66.4419 17.1894L66.5601 17.3076C66.6605 17.4151 66.7608 17.4796 66.8611 17.5083C66.9292 17.5298 67.008 17.5262 67.094 17.4904C67.155 17.4724 67.2768 17.3721 67.4595 17.1965L69.8425 14.8924C70.0288 14.7133 70.1363 14.5914 70.165 14.5269C70.19 14.4589 70.1936 14.3836 70.1721 14.2904C70.147 14.1973 70.0861 14.0969 69.9894 13.9966L69.8711 13.8748L69.9715 13.7816L71.842 15.7166L71.7416 15.8098L71.5875 15.6521C71.4872 15.5482 71.3869 15.4801 71.2865 15.455C71.2185 15.4299 71.1396 15.4371 71.0536 15.4658C70.9891 15.4909 70.8673 15.5876 70.6881 15.7632L68.3769 17.9956C68.1905 18.1748 68.083 18.3002 68.0544 18.3683C68.0221 18.4399 68.0221 18.5188 68.0615 18.6048C68.0866 18.6657 68.1834 18.7804 68.3482 18.9524L68.6385 19.2534C68.8248 19.4469 69.0147 19.5759 69.2082 19.6404C69.3981 19.7013 69.6131 19.7084 69.8496 19.6619C70.0861 19.6117 70.3871 19.4934 70.7562 19.3035L70.8601 19.411V19.411ZM75.1386 26.4666L74.3001 24.8935L73.7698 24.9365C73.5906 24.9509 73.458 24.9831 73.3613 25.0333C73.2359 25.1014 73.1714 25.2017 73.1678 25.3343C73.1606 25.4095 73.2144 25.5708 73.3183 25.8109L73.1965 25.8754L72.4117 24.3954L72.5335 24.3309C72.641 24.4779 72.7772 24.5746 72.942 24.6176C73.1033 24.6642 73.3935 24.6714 73.8128 24.6427L78.2131 24.3453L78.249 24.4098L75.4504 27.9573C75.1852 28.2941 75.0347 28.5342 74.9953 28.6811C74.9702 28.7922 74.9845 28.9176 75.0455 29.0609L74.9272 29.1254L73.7805 26.9683L73.9024 26.9038L73.949 26.9934C74.0421 27.1654 74.1281 27.2764 74.2141 27.3194C74.275 27.3481 74.3395 27.3481 74.404 27.3123C74.4435 27.2908 74.4793 27.2621 74.5151 27.2263C74.533 27.2119 74.5975 27.1367 74.7086 26.9969L75.1386 26.4666V26.4666ZM75.3214 26.2265L76.5039 24.7466L74.6047 24.8792L75.3214 26.2265V26.2265ZM78.8044 36.4892L82.3304 37.1987L82.721 39.2161L82.5884 39.2412L82.5561 39.0799C82.5275 38.933 82.4809 38.8219 82.4128 38.7467C82.3662 38.6929 82.2981 38.6535 82.2121 38.632C82.1476 38.6177 81.9935 38.632 81.7499 38.6786L78.4819 39.3129C78.231 39.363 78.077 39.4096 78.016 39.4454C77.9587 39.4849 77.9157 39.5529 77.8835 39.6425C77.8512 39.7357 77.8476 39.8504 77.8763 39.9901L77.9085 40.1514L77.7724 40.1764L77.2707 37.5893L77.4033 37.5642L77.4355 37.7254C77.4642 37.8724 77.5108 37.9834 77.5789 38.0623C77.6255 38.116 77.6935 38.1554 77.7831 38.1734C77.8476 38.1877 78.0017 38.1734 78.2525 38.1232L81.9219 37.4101L77.0342 36.3889L77.0199 36.3029L81.13 33.5043L77.6398 34.1815C77.3997 34.2281 77.2492 34.2639 77.1955 34.2854C77.0808 34.3428 76.9948 34.4324 76.9375 34.5506C76.8801 34.6724 76.8765 34.8444 76.9195 35.0738L76.7834 35.0989L76.4573 33.4039L76.5899 33.3789L76.6006 33.429C76.6185 33.5401 76.658 33.6369 76.7117 33.7229C76.769 33.8124 76.8335 33.8734 76.9052 33.9092C76.9805 33.9486 77.0772 33.9665 77.1955 33.9737C77.2241 33.9701 77.346 33.9522 77.5681 33.9092L80.7 33.3C80.9508 33.2499 81.1049 33.2069 81.1622 33.1674C81.2195 33.128 81.2625 33.0635 81.2948 32.9704C81.327 32.8808 81.327 32.7625 81.302 32.6264L81.2697 32.4687L81.4059 32.44L81.8 34.4646L78.8044 36.4892V36.4892ZM78.7793 47.9989L78.9979 46.2323L78.5356 45.9599C78.3815 45.8739 78.2525 45.8238 78.145 45.8094C78.0053 45.7915 77.8942 45.8345 77.8154 45.942C77.7652 46.0029 77.7186 46.1606 77.6649 46.4222L77.5287 46.4043L77.733 44.738L77.8691 44.7559C77.8763 44.9387 77.93 45.0964 78.0411 45.2254C78.145 45.3579 78.3815 45.5299 78.7435 45.7449L82.5167 48.0275L82.506 48.0992L78.1809 49.3999C77.7688 49.5218 77.5072 49.6329 77.3925 49.7332C77.3065 49.8084 77.2492 49.9195 77.217 50.0736L77.0808 50.0557L77.3782 47.6334L77.5144 47.6477L77.5 47.748C77.4785 47.9451 77.4893 48.0849 77.5323 48.1673C77.5681 48.2282 77.6183 48.264 77.6935 48.2712C77.7365 48.2784 77.7831 48.2748 77.8333 48.2676C77.8548 48.264 77.9515 48.2389 78.1235 48.1888L78.7793 47.9989V47.9989ZM79.0695 47.9093L80.8827 47.3754L79.2559 46.3935L79.0695 47.9093V47.9093Z" fill="#2B2B2A"/>
<path d="M9.19864 63.8622L9.07681 63.9303L7.75098 61.6369L7.87281 61.5689L7.95523 61.7158C8.03048 61.8412 8.11289 61.9308 8.20248 61.9845C8.26339 62.0203 8.34223 62.0347 8.43181 62.0203C8.49631 62.0168 8.63964 61.9523 8.86181 61.8233L11.7464 60.157C11.9721 60.028 12.1047 59.9349 12.1477 59.8775C12.1907 59.8238 12.2086 59.7449 12.2086 59.6482C12.2086 59.555 12.1728 59.4403 12.1047 59.3185L12.0187 59.1752L12.1406 59.1035L13.4664 61.3968L13.3446 61.4685L13.2621 61.3216C13.1869 61.1962 13.1045 61.1066 13.0149 61.0564C12.9504 61.017 12.8787 60.9991 12.7856 61.0134C12.7175 61.0206 12.5741 61.0851 12.3556 61.2105L9.47098 62.8768C9.24523 63.0058 9.11264 63.0989 9.06964 63.1563C9.03023 63.2136 9.00873 63.2924 9.00873 63.3856C9.00514 63.4859 9.04098 63.5934 9.11264 63.7189L9.19864 63.8622V63.8622ZM17.3256 66.4852L16.7344 70.4555L18.3254 68.9684C18.5476 68.7606 18.6694 68.5886 18.6873 68.4524C18.7124 68.2697 18.6264 68.0726 18.4293 67.8719L18.5332 67.7752L19.6727 69.0007L19.5724 69.0938C19.4076 68.9541 19.2821 68.8753 19.1997 68.8502C19.1173 68.8287 19.0277 68.8323 18.9274 68.8717C18.8271 68.9075 18.6873 69.0078 18.5153 69.1691L15.4301 72.0465L15.3441 71.9569L16.0894 66.5748L13.7351 68.7713C13.5237 68.9684 13.4234 69.1512 13.4413 69.316C13.4556 69.4844 13.5237 69.6313 13.6384 69.7568L13.7208 69.8463L13.6205 69.9395L12.395 68.6244L12.4953 68.5313C12.6888 68.7319 12.8644 68.8358 13.0185 68.8394C13.1761 68.843 13.3517 68.7534 13.5488 68.5707L16.1646 66.1304L16.1897 65.9584C16.2148 65.79 16.2148 65.661 16.1897 65.5714C16.1646 65.4818 16.1001 65.3815 15.9998 65.2633L16.1001 65.1701L17.3256 66.4852V66.4852ZM20.4396 75.9416L20.5112 75.8269L20.6546 75.9093C20.7836 75.9882 20.8911 76.024 20.9806 76.024C21.0738 76.0276 21.1562 76.0025 21.2279 75.9523C21.2745 75.9201 21.3676 75.7911 21.5002 75.5689L23.2166 72.713C23.3492 72.4908 23.4209 72.3439 23.4316 72.2723C23.4424 72.2042 23.4245 72.1253 23.3779 72.0429C23.3277 71.9569 23.2453 71.8781 23.1235 71.8064L22.9801 71.7204L23.0518 71.5986L24.994 72.7668C25.5136 73.0785 25.8898 73.401 26.1191 73.7343C26.4022 74.1356 26.5384 74.5763 26.5276 75.0458C26.5169 75.5152 26.3807 75.9703 26.1156 76.411C25.9292 76.7192 25.7106 76.97 25.4598 77.1671C25.2054 77.3678 24.951 77.5003 24.6966 77.5756C24.4386 77.6508 24.177 77.6795 23.9118 77.658C23.6466 77.6329 23.3528 77.5648 23.0231 77.443C22.8798 77.3893 22.6648 77.2782 22.3853 77.1098L20.4396 75.9416V75.9416ZM24.5604 72.842L22.5215 76.2318C22.414 76.411 22.3602 76.5257 22.3495 76.5758C22.3423 76.626 22.3531 76.6762 22.3817 76.7192C22.4176 76.7873 22.4928 76.8518 22.6039 76.9198C22.9586 77.1313 23.3026 77.1743 23.6395 77.0453C24.091 76.8661 24.5246 76.4361 24.9402 75.7445C25.2771 75.1855 25.4562 74.6874 25.4813 74.2503C25.4992 73.9063 25.4276 73.6232 25.2663 73.3974C25.1516 73.2398 24.9151 73.0534 24.5604 72.842V72.842ZM34.4074 76.6654C35.1921 76.8589 35.7547 77.2674 36.1059 77.8838C36.4499 78.5073 36.518 79.1773 36.3137 79.9012C36.1346 80.5175 35.7977 81.0084 35.3032 81.3739C34.6439 81.8613 33.8806 81.9795 33.0063 81.7287C32.1284 81.4778 31.5371 80.9869 31.229 80.2523C30.9853 79.6754 30.9531 79.0663 31.1394 78.4213C31.3472 77.6974 31.7665 77.1635 32.3971 76.8267C33.0278 76.4827 33.6943 76.4289 34.4074 76.6654V76.6654ZM34.3859 76.9055C33.938 76.7765 33.5331 76.9091 33.1711 77.2997C32.8773 77.615 32.6265 78.1274 32.4258 78.8262C32.1893 79.6575 32.1571 80.3133 32.3362 80.7934C32.4616 81.1303 32.7053 81.3488 33.0708 81.4563C33.3181 81.5244 33.5438 81.5244 33.7409 81.4528C33.9953 81.3596 34.2282 81.1625 34.4432 80.8579C34.6582 80.5569 34.841 80.1341 34.9986 79.593C35.1814 78.948 35.2602 78.4499 35.2316 78.0988C35.2029 77.744 35.1169 77.4753 34.97 77.2853C34.8195 77.1026 34.626 76.9772 34.3859 76.9055ZM43.0181 77.8013L45.6232 80.8543L45.548 78.6757C45.5372 78.3747 45.4871 78.1704 45.3975 78.0665C45.2721 77.9268 45.0678 77.8623 44.7883 77.8766L44.7811 77.7368L46.4546 77.6795L46.4581 77.8193C46.2467 77.8551 46.1034 77.8945 46.0317 77.9411C45.9601 77.9841 45.9063 78.0593 45.8705 78.1597C45.8311 78.2564 45.8167 78.4284 45.8239 78.6685L45.9708 82.8825L45.8454 82.8861L42.2728 78.7903L42.3875 82.0082C42.3982 82.302 42.4699 82.4955 42.6061 82.5923C42.7422 82.689 42.8963 82.7356 43.0683 82.7284L43.1866 82.7248L43.1937 82.8646L41.3985 82.9255L41.3913 82.7893C41.6708 82.775 41.8643 82.7141 41.9682 82.5958C42.0757 82.4812 42.1223 82.2877 42.1116 82.0189L41.9861 78.4463L41.8751 78.3138C41.764 78.1848 41.6672 78.0988 41.5812 78.0593C41.4988 78.0199 41.3806 78.002 41.2265 78.002L41.2193 77.8623L43.0181 77.8013V77.8013ZM52.8436 76.6941L53.4098 78.6757L53.5066 78.6506C53.8183 78.561 54.0118 78.3998 54.0942 78.1668C54.1802 77.9339 54.1838 77.6186 54.1157 77.2316L54.2519 77.1922L54.9829 79.7435L54.8467 79.7829C54.7392 79.5106 54.6138 79.3028 54.4705 79.1523C54.3271 79.0018 54.1838 78.9122 54.0441 78.8835C53.9079 78.862 53.718 78.8799 53.4886 78.948L53.8828 80.3168C53.9581 80.5856 54.0154 80.7468 54.0584 80.8006C54.0942 80.8543 54.1516 80.8902 54.2268 80.9117C54.2985 80.9332 54.406 80.9224 54.5457 80.883L54.836 80.8006C55.2911 80.668 55.6243 80.4602 55.8393 80.1699C56.0507 79.8833 56.1582 79.5034 56.1546 79.0376L56.2836 78.9982L56.513 80.6107L52.3026 81.8183L52.2631 81.6857L52.4244 81.6391C52.5677 81.5997 52.6716 81.5388 52.7433 81.4635C52.7971 81.4133 52.8293 81.3417 52.8365 81.2521C52.8508 81.1876 52.8186 81.0335 52.7469 80.7863L51.8296 77.5828C51.7686 77.3642 51.7221 77.2316 51.6934 77.185C51.6468 77.1062 51.5859 77.056 51.5071 77.0273C51.396 76.9843 51.2634 76.9879 51.1057 77.0345L50.9409 77.0811L50.9051 76.9449L54.9793 75.7768L55.395 77.2173L55.2588 77.2567C55.0868 76.927 54.9184 76.7013 54.7464 76.583C54.578 76.4683 54.3666 76.4038 54.1157 76.4003C53.9724 76.3931 53.7144 76.4468 53.3453 76.5508L52.8436 76.6941V76.6941ZM62.1782 71.8853L63.1314 73.2756L63.0024 73.3616C62.7121 73.0427 62.3789 72.8563 61.9991 72.7918C61.6228 72.7309 61.2967 72.7883 61.0208 72.9674C60.8058 73.1072 60.6768 73.272 60.6266 73.4691C60.5729 73.6626 60.598 73.8346 60.6947 73.9815C60.7556 74.0747 60.8309 74.1463 60.9241 74.1893C61.0459 74.2503 61.2071 74.2861 61.4006 74.2933C61.5476 74.2968 61.8521 74.2718 62.3216 74.218C62.9773 74.1392 63.4611 74.1535 63.7764 74.2574C64.0881 74.3613 64.3354 74.5548 64.5181 74.8343C64.7475 75.1891 64.8084 75.5868 64.6973 76.0204C64.5862 76.4576 64.3175 76.8159 63.8946 77.0918C63.7621 77.1778 63.6223 77.2459 63.4861 77.2961C63.35 77.3463 63.1672 77.3928 62.9415 77.4323C62.8125 77.4573 62.7157 77.4896 62.6512 77.5326C62.5975 77.5684 62.5545 77.6258 62.5186 77.7046C62.4864 77.787 62.4792 77.8838 62.4971 77.9948L62.3825 78.0701L61.3397 76.4648L61.4544 76.3895C61.8414 76.7801 62.2391 77.0094 62.6548 77.0775C63.0741 77.142 63.4324 77.0775 63.7334 76.884C63.9699 76.7299 64.1132 76.5436 64.1706 76.325C64.2279 76.11 64.1992 75.9165 64.0881 75.7481C64.0236 75.6478 63.9341 75.5653 63.8194 75.5044C63.7047 75.4471 63.5686 75.4113 63.4037 75.3969C63.2389 75.3826 62.9773 75.3969 62.6118 75.4399C62.103 75.5008 61.7196 75.5188 61.4616 75.4973C61.2071 75.4722 60.9814 75.4077 60.7807 75.3038C60.5836 75.1963 60.4224 75.0458 60.2934 74.8451C60.0712 74.5083 60.0103 74.1356 60.1035 73.7378C60.1966 73.3401 60.4331 73.0176 60.813 72.7703C60.9491 72.6808 61.0925 72.6091 61.243 72.5589C61.3612 72.5195 61.5081 72.4908 61.6945 72.4658C61.8808 72.4407 61.9991 72.412 62.0564 72.3762C62.1101 72.3403 62.1424 72.2973 62.1531 72.2436C62.1639 72.1898 62.1388 72.0895 62.0851 71.9462L62.1782 71.8853V71.8853ZM71.7421 70.4018L71.8353 70.5021L69.9326 72.3403L69.8358 72.24L69.9576 72.1253C70.0616 72.0214 70.1296 71.9211 70.1583 71.8208C70.1798 71.7527 70.1726 71.6738 70.1368 71.5878C70.1189 71.5269 70.0186 71.4051 69.843 71.2223L67.5281 68.8251C67.349 68.6388 67.2271 68.5313 67.1591 68.5026C67.0946 68.4739 67.0157 68.4739 66.9226 68.499C66.8294 68.5205 66.7291 68.5814 66.6287 68.6782L66.5069 68.7964L66.4101 68.6961L68.3165 66.8578L68.4132 66.9582L68.2914 67.0728C68.1875 67.1768 68.1194 67.2771 68.0907 67.3774C68.0692 67.4455 68.0728 67.5243 68.1051 67.6103C68.1301 67.6713 68.2269 67.7967 68.4025 67.9794L70.7173 70.3767C70.9001 70.563 71.0219 70.6705 71.0864 70.6956C71.1509 70.7207 71.2333 70.7243 71.3265 70.6992C71.4196 70.6777 71.5164 70.6168 71.6203 70.52L71.7421 70.4018V70.4018ZM75.9239 62.7872L74.9743 64.3029L75.2825 64.7473C75.3828 64.8942 75.4796 64.9945 75.5727 65.0483C75.691 65.1271 75.8128 65.1307 75.9275 65.0698C75.9991 65.0375 76.1102 64.9121 76.2679 64.6971L76.3861 64.7688L75.4939 66.1985L75.3756 66.1268C75.4473 65.9584 75.4652 65.79 75.4186 65.6252C75.3792 65.4603 75.2395 65.2023 75.003 64.8548L72.5341 61.1747L72.5735 61.1138L77.0634 61.7659C77.4898 61.8268 77.7765 61.8376 77.9234 61.7982C78.0345 61.7659 78.1348 61.6871 78.228 61.5653L78.3426 61.6369L77.0455 63.7153L76.9272 63.64L76.981 63.5576C77.0849 63.3892 77.1351 63.2566 77.1315 63.1598C77.1279 63.0918 77.0921 63.038 77.0276 62.9986C76.9917 62.9771 76.9487 62.9592 76.8986 62.9484C76.8771 62.9377 76.7803 62.9198 76.6011 62.8911L75.9239 62.7872V62.7872ZM75.6229 62.7478L73.7416 62.4611L74.8095 64.0485L75.6229 62.7478Z" fill="#2B2B2A"/>
<path d="M43 0C19.2568 0 0 19.2568 0 43C0 66.7432 19.2568 86 43 86C66.7432 86 86 66.7432 86 43C86 19.2568 66.7432 0 43 0ZM43 85.1292C19.7334 85.1292 0.87075 66.2666 0.87075 43C0.87075 19.7334 19.7334 0.87075 43 0.87075C66.2666 0.87075 85.1292 19.7334 85.1292 43C85.1292 66.2666 66.2666 85.1292 43 85.1292Z" fill="#00913F"/>
<path d="M35.5719 50.6468V47.5078H34.9197V48.6796H33.6261V47.5078H32.9775V50.6468H33.6261V49.2565H34.9197V50.6468H35.5719Z" fill="white"/>
<path d="M39.8324 50.6468H40.5097L39.3773 47.5078H38.632L37.5176 50.6468H38.1948L38.4027 50.0018H39.6174L39.8324 50.6468ZM38.5711 49.4715L39.0082 48.1349L39.4454 49.4715H38.5711Z" fill="white"/>
<path d="M42.4556 47.5078V50.6468H44.6306V50.0663H43.1006V47.5078H42.4556Z" fill="white"/>
<path d="M48.1456 47.5078H47.4002L46.2822 50.6468H46.9631L47.1673 50.0018H48.3856L48.5971 50.6468H49.2743L48.1456 47.5078V47.5078ZM47.3393 49.4715L47.7729 48.1349L48.2101 49.4715H47.3393Z" fill="white"/>
<path d="M51.2202 47.5078V50.6468H53.3989V50.0663H51.8652V47.5078H51.2202Z" fill="white"/>
<path d="M66.2557 51.464C66.2557 51.2096 66.3524 50.9229 66.4958 50.7186C66.4958 50.5144 66.5424 50.346 66.6642 50.1883C66.7609 49.6974 66.8183 49.1778 67.0369 48.7335C67.0118 48.6976 67.001 48.6618 66.9867 48.626C67.1587 48.024 67.2769 47.422 67.302 46.7985C67.5063 46.2466 67.3629 45.5622 67.5063 44.971C67.2877 44.0823 67.6962 43.1435 67.4955 42.2906C67.0369 42.4232 66.5316 42.3516 66.0514 42.3516V42.2405C65.4136 42.2405 62.4072 42.0255 62.3248 41.8463C62.228 41.8463 62.0704 41.9431 62.013 41.8571C61.4934 41.8212 61.4827 42.0506 61.2534 41.5095C61.1459 41.3661 60.7983 41.0293 60.7983 40.8358C60.6155 40.7749 60.4829 40.6208 60.3647 40.4524H60.293C60.2679 40.5491 59.8594 40.9182 59.7519 40.9182C59.7519 40.9791 59.7627 41.0401 59.777 41.101C59.5477 41.2694 59.2109 41.4629 59.1034 41.7496C58.4046 42.0004 58.7665 42.5558 58.9349 43.0467C59.0317 43.0611 59.1141 43.0252 59.175 43.0718C59.3434 42.9034 60.8592 43.1578 61.1459 43.1327C61.1709 43.1435 61.196 43.1578 61.2319 43.1793C61.3859 43.1076 61.4576 43.1793 61.6045 43.2295C62.6258 43.251 63.6721 43.4086 64.6324 43.4086C64.6432 43.4337 64.6575 43.4552 64.6683 43.4911C64.8976 43.5305 65.1269 43.5771 65.367 43.6236C65.3885 43.6846 65.4244 43.7455 65.4602 43.8171C66.0013 43.9497 65.7863 44.7058 65.6788 45.0677C65.367 45.2971 65.1843 45.5264 64.7758 45.573C64.7543 45.5981 64.7292 45.6196 64.7149 45.6554C64.4139 45.6554 63.4786 45.7772 63.2385 45.6196C62.9626 45.6554 62.7189 45.5837 62.443 45.5371C62.4681 45.1645 62.3857 44.8384 62.3248 44.4657C62.1814 44.4657 62.0954 44.5016 61.9736 44.4657C61.9629 44.5016 61.9521 44.5374 61.9521 44.5876C61.3501 44.7667 60.809 45.3078 60.1855 45.3795C60.1963 45.6805 60.293 45.9815 60.293 46.2574C60.4471 46.2932 60.6514 46.3541 60.7839 46.2932C60.8341 46.3076 60.8807 46.3183 60.9309 46.3434C60.9416 46.3183 60.9667 46.3076 60.9918 46.2932C61.5078 46.3291 62.1456 46.3291 62.6365 46.4616C63.2959 46.4975 63.8011 46.5942 64.378 46.9203V47.0027C64.5966 47.1711 64.6324 47.3037 64.6575 47.5689C65.1628 47.9057 64.8474 49.6831 64.464 50.0665C64.4533 50.1274 64.4533 50.1883 64.4533 50.2492C64.378 50.2743 64.3064 50.2958 64.2454 50.3316C64.2347 50.3818 64.2347 50.4284 64.2347 50.4786C64.1881 50.4893 64.1523 50.5001 64.1164 50.5144C64.1021 50.5502 64.0914 50.5861 64.0806 50.6219C64.0197 50.6326 63.9695 50.647 63.9229 50.6577C63.8764 50.8011 63.4177 51.0304 63.4177 50.8261C63.1418 51.0161 62.5756 50.9695 62.2531 50.9444C62.2388 50.9086 62.2388 50.8871 62.2388 50.862C61.712 51.0304 61.4361 50.5861 60.9774 50.4535C60.6514 50.1274 60.6155 49.9948 60.5331 49.9231C60.4973 49.6006 60.4973 49.6006 60.4471 49.5648C60.5331 48.6869 60.3539 48.7944 59.8129 48.2282C59.4044 48.2282 59.0424 47.8699 58.5874 47.8699C58.5121 47.9881 58.4297 48.11 58.2971 48.1673C58.1287 48.7836 57.3583 49.4071 56.7348 49.4681C56.6488 49.5039 56.5664 49.5397 56.4947 49.5863C56.4804 49.8156 56.4087 49.9231 56.4589 50.1525C56.8674 50.0557 58.2147 50.346 58.4906 50.3711C58.6805 50.5144 59.0066 50.6326 59.2359 50.7186C59.5369 50.9802 60.1354 51.0913 60.3396 51.4281C60.5331 51.4281 60.7624 51.5966 60.8198 51.765C60.895 51.7291 61.5185 52.1735 61.6404 52.2308C61.8554 52.5927 62.6616 52.8471 62.7333 53.2556C62.7584 53.2556 62.7942 53.2556 62.83 53.2664C62.9375 53.7107 62.6724 54.7929 62.1098 54.7929C62.0704 54.8287 62.0345 54.8646 61.9987 54.9111H61.7837C61.7694 54.9255 61.7586 54.9506 61.7479 54.9721C61.3967 54.9506 61.0634 54.9362 60.7266 54.9255C60.594 54.8036 60.4722 54.6961 60.3539 54.5886C60.0888 54.6496 59.9311 54.2876 59.6803 54.2876C59.6552 54.2411 59.6301 54.1909 59.6194 54.1551C59.3291 54.0225 58.6089 53.6391 58.4906 53.313C58.2147 53.2055 58.0212 52.9654 57.8384 52.7253C57.8743 52.6895 57.9244 51.8617 57.9244 51.8474C58.1538 51.5822 57.8277 51.5715 57.8277 51.378C57.6593 51.4138 57.5159 51.3063 57.3941 51.1988C56.8889 51.1271 56.6273 51.1988 56.337 51.6073C56.0002 51.5715 55.6777 51.5966 55.3409 51.5464C55.2083 51.6933 55.0506 51.7041 55.0506 51.9441C55.1581 51.98 55.3265 52.0409 55.434 51.9549C55.9034 52.1735 56.6022 52.5927 56.8315 53.0621C56.8781 53.0621 56.9283 53.0621 56.9856 53.0729C57.0214 53.1338 57.0573 53.1947 57.0967 53.2664C57.154 53.2771 57.2257 53.2915 57.3009 53.3022C57.3009 53.3488 57.3009 53.399 57.3117 53.4599C57.3941 53.4814 57.4801 53.5172 57.5769 53.5531C57.8635 54.0225 58.5479 54.2518 58.7307 54.7929C59.1141 54.8646 59.2933 55.2981 59.6086 55.5024C59.8594 55.8141 60.1139 56.1259 60.3754 56.4412H60.4829C60.6048 56.7279 60.6764 56.7781 60.5689 57.054C60.5689 57.2439 60.4471 57.3048 60.3754 57.484C60.2787 57.4374 60.0279 57.7384 59.9562 57.7993C59.8129 57.7993 59.5477 57.8817 59.2718 57.8817C59.0424 57.7384 58.8131 57.5592 58.5479 57.5091C58.2147 57.2439 58.2147 57.2439 57.5876 56.8856C57.4658 56.7279 57.0214 56.4771 56.8315 56.4269C56.6488 56.2011 56.5413 56.151 56.4087 56.0076C55.9393 55.8392 55.8676 55.3232 55.8676 54.9255C56.0719 54.5886 56.1686 54.5528 56.2403 54.4202C55.9393 54.001 55.8676 53.7931 55.3158 53.915C54.6314 53.8684 53.886 54.0225 53.2231 54.0941C53.198 54.3378 53.1658 54.3593 53.1873 54.5779C53.3557 54.6352 53.4883 54.6854 53.6101 54.8036C53.7785 54.8036 54.0043 55.0581 54.1261 55.1656C54.7138 55.5024 55.5093 56.1044 55.8461 56.7171C55.8676 56.7279 55.9034 56.7422 55.9393 56.753C55.9393 56.7996 55.9536 56.8605 55.9644 56.9214C56.2904 57.0755 56.9498 57.9068 57.0107 58.2795C57.0465 58.2902 57.0967 58.3046 57.1433 58.3153C57.154 58.3977 57.1684 58.4945 57.1899 58.5912C57.2257 58.5912 57.2651 58.5912 57.3009 58.602C57.3583 58.8062 57.5769 59.3975 57.7453 59.4441C57.756 59.6017 57.7668 59.7701 57.7811 59.9386C57.7453 59.9493 57.7094 59.9636 57.6736 59.9851C57.6951 60.021 57.7202 60.0568 57.7453 60.107C57.6485 60.3112 57.6485 60.3112 57.5625 60.3721C57.5769 60.3936 57.5876 60.4187 57.6127 60.4546C57.2759 61.0924 57.0358 61.6084 56.2295 61.6801C56.0611 61.8019 55.2334 61.827 55.1474 61.6442C54.9682 61.6335 54.5346 61.6084 54.4737 61.4149C53.8502 61.1891 53.1765 60.8272 52.6713 60.408C52.0119 60.1894 51.5389 59.6626 50.8438 59.5301C50.8187 59.5659 50.7972 59.6125 50.7829 59.6626C50.5786 59.8167 50.5929 59.9995 50.3994 60.1643C50.2059 60.8989 49.8942 61.6227 49.715 62.3788C49.6434 62.4505 49.5932 62.6189 49.4033 62.8697C49.328 63.3033 50.0268 64.6399 50.3134 64.9266C50.7112 64.9373 51.2415 65.0126 51.564 65.2526C51.9725 65.31 52.3954 65.482 52.6964 65.7794C52.7322 65.7686 52.768 65.7686 52.8146 65.7686V65.9836C52.8397 65.9478 52.8755 65.9263 52.9114 65.9012C52.983 66.0338 53.0296 66.213 53.1765 66.2846C53.1264 67.2091 52.9221 67.6069 52.3237 68.3056C52.1194 68.8216 51.564 68.3666 51.1914 68.6174C50.4962 68.4382 49.7867 68.1121 49.3889 67.4636H49.3173C49.1596 67.2844 49.0163 67.116 48.8729 66.9476H48.7762C48.2709 67.4994 49.113 68.0763 49.113 68.6281C49.2707 68.6998 49.328 68.75 49.3531 68.9399C49.4499 68.9793 49.4499 68.9793 49.6792 69.2552C49.9909 69.3878 50.1343 69.5311 50.532 69.6279C50.9871 69.9396 51.5891 69.782 52.0227 70.0471C52.0478 70.0221 52.0693 70.0006 52.1051 69.9862C52.5996 70.1439 53.7534 69.4702 53.9219 69.0366C54.7854 68.4239 54.7639 66.8042 54.2802 65.9621C54.2945 65.912 54.3053 65.8761 54.3304 65.8403C54.2802 65.7794 54.2802 65.7794 54.1261 65.7221C53.9434 65.4569 53.4417 64.6399 53.1264 64.6399C53.1049 64.5897 53.0905 64.5431 53.0798 64.493H52.983C52.9364 64.4213 52.9006 64.3496 52.8648 64.2887C52.6713 64.2887 52.3452 64.1705 52.2735 64.0128C52.2269 64.0021 52.1911 63.9877 52.1553 63.9877C52.1409 63.9411 52.1302 63.8946 52.1194 63.8551C52.0693 63.8551 52.0227 63.8551 51.9725 63.8695C51.951 63.8193 51.9259 63.7727 51.9152 63.7369C51.7575 63.7118 51.6249 63.5936 51.4816 63.5936C51.2057 63.2209 51.5389 62.1853 51.6715 61.8019C51.7468 61.8126 51.8184 61.827 51.9009 61.8485C52.0478 62.0886 52.3595 62.0778 52.5638 62.2821C53.0296 62.4397 53.4524 62.8231 53.9326 62.9199C53.9326 62.9557 53.9326 62.9916 53.9434 63.0381C54.0903 63.0632 54.2587 63.0274 54.3053 63.1958C54.3662 63.1851 54.4271 63.1707 54.4988 63.1707C55.219 63.3284 55.8569 63.4251 56.6022 63.4466C56.939 62.945 57.7309 62.7766 58.057 62.2355C58.5372 62.0527 58.8131 61.4543 59.3291 61.2465C59.3793 61.0207 59.7519 60.8272 59.9311 60.6481C60.0637 60.0819 61.0634 59.8526 61.2426 59.3115C61.3035 59.2649 61.3609 59.2183 61.4218 59.1825C61.3859 59.0499 62.7584 57.6416 62.9124 57.3299C63.1167 57.0898 63.3568 56.9214 63.4679 56.6204C63.6721 56.4771 63.6578 56.3911 63.7653 56.1868C63.9695 56.1402 64.464 55.2157 64.5357 54.9864C64.8367 54.8538 64.7292 54.4453 64.98 54.2769C65.1628 53.8182 65.4494 53.4599 65.582 52.9761C65.883 52.582 65.883 51.8366 66.2557 51.464V51.464Z" fill="white"/>
<path d="M34.6867 68.3879C34.1348 67.836 33.8446 67.9937 33.2677 68.3305C33.2569 68.438 33.2462 68.5097 33.1602 68.5921C33.1602 69.0615 33.3537 69.2658 33.6296 69.6026C33.8589 69.5919 34.0847 69.5775 34.314 69.5775C34.4717 69.4485 34.916 68.8931 34.7225 68.6996C34.7117 68.5921 34.701 68.4846 34.6867 68.3879V68.3879Z" fill="white"/>
<path d="M46.5405 67.6318C46.5405 67.6676 46.5405 67.7034 46.5512 67.75C46.286 67.9793 46.5154 68.5097 46.8164 68.6064V68.6888C46.8665 68.6996 46.9131 68.7139 46.974 68.7247C47.6119 68.6638 47.6692 68.3413 47.6692 67.7142C47.3324 67.2949 46.974 67.3415 46.5405 67.6318Z" fill="white"/>
<path d="M40.0366 68.2087H40.0832V68.1621H40.0366V68.2087Z" fill="white"/>
<path d="M30.9495 66.754C30.9245 66.7182 30.8994 66.6824 30.8886 66.6573C30.731 66.6214 30.5876 66.5964 30.4443 66.5749C30.1075 66.3706 28.7852 66.0087 28.3875 66.1054C28.28 66.0338 28.1725 65.9729 28.0757 65.9119C27.6529 65.851 26.8968 64.8549 26.6101 65.4318C26.56 65.4318 26.5134 65.4425 26.4775 65.4569C26.4775 66.0804 27.7138 66.5749 28.2083 66.6931C28.4018 66.9834 29.5055 66.7648 29.8781 67.1374H30.0967C30.1182 67.1733 30.1433 67.2091 30.1684 67.2593C30.4694 67.3309 31.057 67.4743 31.2255 67.7287C31.4405 67.6929 31.4405 67.6929 31.5265 67.7144C31.7916 67.5818 31.935 67.2593 31.8024 66.9834C31.5157 66.8759 31.272 66.754 30.9495 66.754V66.754Z" fill="white"/>
<path d="M40.0366 67.6784H40.0832V67.6426H40.0366V67.6784Z" fill="white"/>
<path d="M44.8205 64.0235H44.7237C44.6772 63.9661 44.6413 63.9052 44.6055 63.8443C44.5697 63.8443 44.5338 63.855 44.498 63.8694C44.4837 63.8192 44.4729 63.7726 44.4622 63.7368C44.1612 63.64 44.2077 63.5218 44.0644 63.2925C43.9784 63.2781 43.896 63.2674 43.81 63.2674C43.7168 62.9664 43.1256 62.798 42.9822 62.497C42.9464 62.4755 42.9106 62.4611 42.8855 62.4504C42.6705 62.7406 42.4053 62.9664 42.1043 63.1348C42.0936 63.185 42.0792 63.2315 42.0792 63.2925C41.5632 63.6651 41.1906 64.1811 40.6853 64.5681C40.4703 64.5789 39.8827 64.4463 39.7967 64.5323C39.5817 64.4929 39.209 64.543 39.0406 64.4463C38.2952 64.5681 37.4388 64.2062 36.7293 64.3746C36.6827 64.3388 36.6827 64.3388 35.8048 64.2886C35.769 64.3137 35.7439 64.3495 35.7224 64.3854C35.9625 64.6505 36.2133 64.9874 36.4892 65.1916C36.5967 65.421 36.8261 65.5034 36.9479 65.7435C36.8512 65.722 36.7544 65.7076 36.6577 65.6969C36.6469 65.7076 36.6362 65.722 36.6218 65.7435C36.0449 65.6718 35.1813 65.8653 34.6868 65.5392C34.2676 65.4819 33.8447 65.3457 33.4362 65.2275C33.4506 65.0949 33.4613 64.9623 33.4864 64.8297C33.6046 64.758 33.9666 63.6759 33.9666 63.486C34.2927 62.9664 34.2532 62.1745 34.6151 61.6943C34.4826 61.2715 35.3712 59.6482 35.5647 58.9889C35.8192 58.8205 35.8299 58.2077 36.1309 57.9533C36.5502 58.0859 36.9372 58.2901 37.3564 58.351C37.2955 58.0859 37.0805 57.8816 37.1056 57.5591C36.887 57.1972 36.9372 56.5379 36.6577 56.2584C36.6577 56.029 36.5036 55.7316 36.4534 55.4915C36.4176 55.4915 36.3925 55.4915 36.371 55.5023C36.2133 55.7316 36.1524 55.9466 35.9374 56.1616C35.9267 56.2584 35.9374 56.3551 35.8407 56.4017C35.8908 56.4985 35.5898 56.7278 35.5898 56.9213C35.2028 57.3047 34.9986 57.9533 34.651 58.412C34.5793 58.5911 34.4969 58.928 34.3285 59.0104C34.2927 59.1824 34.2067 59.254 34.1601 59.4225C33.8591 59.7199 33.7731 60.2144 33.4864 60.5261C33.4004 60.9848 32.8378 61.4542 32.7626 61.9451C32.2824 62.307 32.114 63.1599 31.7198 63.64C31.7664 63.7368 31.4905 63.916 31.5263 64.0987C31.3579 64.4463 30.6735 64.1704 30.3832 64.0987C30.2506 63.8945 29.8672 64.0629 29.7454 63.8192C29.0968 63.4716 28.545 63.1348 28.029 62.5328C27.9788 62.522 27.943 62.5113 27.9071 62.497V62.4396H28.0648C28.0648 62.3787 28.0648 62.3178 28.0756 62.2712C28.1616 62.2103 28.1616 62.2103 28.3049 62.1995C28.4231 61.68 29.2043 61.5832 29.3261 61.0672C29.4336 60.9705 29.5411 60.8271 29.6988 60.8271C29.7454 60.5512 30.0966 60.3935 30.3116 60.2C30.6376 59.5407 30.996 60.046 31.4045 60.2144C31.7055 59.9134 31.2504 57.9318 31.2253 57.3047C31.1178 57.4265 30.9351 57.6666 30.7666 57.6666C30.48 58.0859 30.1431 58.3976 29.7239 58.6879C29.7239 58.8205 29.6272 58.9029 29.5412 58.9996C29.147 59.1931 28.9535 59.7808 28.5199 59.9241C28.2798 60.4079 27.6778 60.7089 27.3768 61.164C27.0185 61.3073 26.9683 61.705 26.6207 61.8269C26.6207 61.8376 26.6207 61.8484 26.6351 61.8735C26.5598 61.8842 26.4989 61.8125 26.3806 61.766C26.3556 61.6943 26.3305 61.6334 26.309 61.5725H26.2015C25.9614 61.2356 25.5636 60.9597 25.2626 60.6587C25.5278 60.5261 25.922 59.9492 26.2122 59.9492C26.223 59.9026 26.2373 59.8525 26.2481 59.8059C26.8501 59.444 27.2442 58.7595 27.8964 58.5087C27.9573 58.197 28.3049 57.9891 28.6059 57.9175C28.7851 58.136 29.2796 58.3761 29.5304 58.5195C29.5412 58.5087 29.5662 58.4944 29.5913 58.4836C29.5555 58.326 29.6021 58.197 29.5555 58.0393C29.577 57.7634 29.7812 55.6098 29.6379 55.4665C29.4086 55.66 29.2294 55.8642 28.9427 55.9466C28.8926 56.115 28.7242 56.2118 28.5808 56.3193C28.5557 56.2942 28.5342 56.2835 28.5199 56.2727C28.2798 56.5486 27.9071 56.8138 27.5811 56.993C27.2227 57.4731 26.1406 57.8601 25.9721 58.3618C25.7786 58.4585 25.5887 58.5553 25.3952 58.6628C25.3486 58.8205 25.0835 58.9638 24.9616 59.1322C24.7323 59.1824 24.5782 59.3866 24.4098 59.5407C24.2306 59.4332 24.1446 59.229 23.9511 59.1215C23.9511 59.0856 23.9655 59.0498 23.9762 59.0247C23.7111 58.928 23.6036 58.7237 23.3742 58.652C23.3133 58.5087 23.2918 58.4729 23.1843 58.3618C23.4101 58.0644 23.9511 57.9784 24.2665 57.7132C24.3596 57.7383 24.589 57.5197 24.7825 57.5197C24.7932 57.4731 24.804 57.4265 24.8291 57.3907H24.9724C24.9975 57.3405 25.0226 57.3047 25.0584 57.2689C25.6246 57.1005 26.2015 56.7063 26.7175 56.4017C27.0041 56.4519 27.1976 56.8245 27.5345 56.8245C27.6527 56.4268 27.6921 56.0075 27.8713 55.6349C27.9322 55.2371 28.1257 54.4309 28.4375 54.1908C28.4375 53.8432 28.6632 53.5888 28.76 53.2555C28.8102 53.2305 28.8101 53.2305 29.0144 53.3129C29.0001 53.3487 29.0001 53.3845 29.0001 53.4347H29.1111C29.3261 53.793 29.9855 54.0224 30.3223 54.3126C30.566 54.3377 30.7201 54.4201 30.8992 54.5635C30.9351 54.542 30.9745 54.5276 31.0211 54.5169C31.082 54.5778 31.082 54.5778 31.1035 54.696C31.1644 54.6853 31.2253 54.671 31.297 54.671C31.297 54.696 31.3077 54.7211 31.3221 54.757C31.7198 54.671 32.0567 54.5885 32.3075 54.241C33.017 53.9865 32.7267 52.4708 32.4042 52.0766C31.3686 52.1232 30.8526 52.4708 30.4298 53.4598C30.2041 53.5315 29.9281 53.2555 29.7812 53.123C29.1828 52.8829 28.7241 52.435 28.7958 51.7756C29.1219 51.5355 29.3261 50.9586 29.6737 50.6684C29.6379 50.1416 29.6164 49.6471 29.6271 49.106H29.0861C28.9427 49.2995 29.0968 49.468 29.1219 49.708C29.0717 50.1022 28.9786 51.1987 28.4124 51.3062C28.2691 51.127 28.1723 50.9443 27.9932 50.7651C28.0147 50.7042 28.0397 50.6469 28.0756 50.5967C28.0505 50.5501 28.0397 50.5 28.029 50.4641C28.0397 50.1165 27.9573 48.7585 28.2332 48.5757C28.3407 48.3249 28.3658 48.264 28.6059 48.1457C28.6166 47.9164 28.6417 47.7014 28.6632 47.4828C28.5199 47.4971 28.3156 47.5939 28.2189 47.4971C27.9931 47.773 27.5237 47.8555 27.1869 48.0597C27.1618 48.049 27.1367 48.0382 27.1152 48.0239C27.0901 48.0597 27.0794 48.1099 27.0651 48.1565C27.0185 48.1457 26.9683 48.1457 26.9217 48.1457C26.911 48.1672 26.8966 48.2066 26.8859 48.2425L19.8984 50.8834L19.8841 51.016L17.5979 51.7326C17.6839 52.2988 17.838 52.7288 18.268 53.1588C18.6012 52.9187 19.0599 52.7718 19.4433 52.6285L26.2122 49.3103C26.4774 49.2135 26.4774 49.2135 26.6351 49.2279C26.7067 49.5038 26.7067 49.5038 27.0292 50.1631C27.0543 50.1631 27.0794 50.1775 27.1152 50.1882V50.3459C27.3195 50.4068 27.5811 51.2238 27.7996 51.4388C27.8104 51.489 27.8247 51.5463 27.8355 51.6072C28.1974 51.8724 28.3156 52.675 28.6776 52.7969C28.6883 52.9044 28.6991 53.0262 28.7134 53.1445C28.5916 53.2197 28.4733 53.2914 28.3658 53.3738C28.3515 53.424 28.3407 53.4813 28.3407 53.5422C28.0397 53.5422 27.9573 54.0116 27.6778 54.0582C27.5954 54.3377 27.2084 54.5885 26.9468 54.671C26.8966 54.8179 26.2122 55.3697 26.0689 55.3948C26.0546 55.4306 26.0546 55.4665 26.0546 55.5023C25.707 55.5489 25.5744 55.7675 25.2734 55.8642C25.2626 55.9 25.2519 55.9359 25.2519 55.9825C25.1766 55.9825 25.1193 55.9825 25.0584 55.9932C25.0226 56.115 23.9153 56.631 23.7469 56.631C23.5928 56.7529 23.4817 56.8245 23.2918 56.8496C22.4354 57.2438 20.8981 57.835 19.9235 57.7275C19.902 57.7634 19.902 57.7634 19.2391 57.7849C19.1925 57.7383 17.8702 57.4265 17.7627 57.4624C17.7484 57.4265 17.7376 57.3907 17.7376 57.3656C17.6767 57.3764 17.6301 57.3907 17.58 57.4015C17.3901 57.208 17.0891 57.1148 16.849 57.0646C16.7881 56.8855 16.0176 56.5737 15.8385 56.477C15.3941 56.477 15.2508 55.7424 14.8531 55.599C14.8531 55.3948 14.3836 54.6136 14.2403 54.6602C14.226 54.5885 14.226 54.5276 14.226 54.4667C14.1901 54.456 14.1543 54.4452 14.1292 54.4309C14.1077 54.3843 14.0934 54.3485 14.0826 54.3126H14.011C13.9644 54.2159 13.7458 53.8074 13.7816 53.6855C13.7351 53.664 13.6849 53.639 13.6491 53.6282C13.6491 53.4455 13.3839 52.7861 13.2549 52.6535C13.1689 52.1734 13.1689 52.1734 13.0865 51.919C13.0614 51.1987 12.8822 50.1524 13.2155 49.468C13.1796 48.9161 13.5308 48.2532 13.71 47.748C13.8318 47.687 13.9751 47.2785 14.011 47.146C14.2618 46.7733 14.6596 46.3791 14.8531 45.9814C15.2257 45.8022 15.5733 45.4403 15.8134 45.1142C15.9818 44.9852 15.9818 44.9852 16.1861 44.91C16.1861 44.8741 16.1861 44.8383 16.1968 44.8025H16.2828C16.2828 46.028 16.5731 47.2176 16.6913 48.4575C16.8131 48.5757 16.8597 48.8301 16.8848 48.9985C17.1034 49.149 17.2897 49.1885 17.537 49.192L17.5728 49.1849C17.5943 49.1383 17.6301 49.106 17.666 49.0702C17.7556 49.0845 17.8344 49.106 17.8989 49.1383L18.6406 49.0308C19.0348 48.9305 19.7586 48.8409 19.9736 48.6259C20.5971 48.7334 21.321 48.1457 21.9337 48.264C21.9552 48.2174 21.9911 48.1815 22.0305 48.1457C22.3637 48.1923 22.955 47.9307 23.2918 47.8698C23.5928 47.6405 24.0479 47.7372 24.3596 47.533C24.5066 47.6046 24.6248 47.4828 24.7825 47.4219C24.804 47.4362 24.8291 47.447 24.8649 47.472C25.1408 47.3395 25.3486 47.2929 25.6604 47.2678C25.7786 47.146 25.9972 47.1245 26.1513 47.0994C26.1871 47.1352 26.223 47.1818 26.2731 47.232C26.2481 47.2678 26.2373 47.3036 26.223 47.3502C26.3556 47.533 26.3914 47.8698 26.4272 48.0848C26.7067 48.2174 28.029 46.7375 28.029 46.5225C28.1472 46.4615 28.2547 46.3182 28.2189 46.1856C27.7387 46.139 27.0901 46.139 26.6458 46.0172C26.3305 46.329 25.4669 46.0172 25.0691 46.2824L24.7825 46.3182C24.6606 46.0996 24.4349 45.9814 24.3847 45.727C24.4564 45.6195 24.5424 45.512 24.6248 45.4152C24.7108 45.1644 24.7825 44.333 24.6248 44.179C24.3381 44.179 23.8938 44.2506 23.6394 44.1288C23.5426 44.179 23.4602 44.1646 23.3742 44.1073V43.516C23.7827 43.0108 23.7827 43.0108 23.7827 42.9391C23.3276 42.674 23.3742 41.5954 23.3742 41.126C22.8475 41.5201 23.0625 42.3371 23.0159 42.9535C22.5572 43.5411 22.4605 44.6806 22.7149 45.3794C22.6898 45.4761 22.6791 45.5836 22.6647 45.6911C22.8116 45.7413 22.8116 45.7413 22.955 45.8595C23.1951 45.8954 23.6394 45.9205 23.6394 46.268C23.557 46.3075 23.557 46.3075 23.4101 46.4615C22.7507 46.4615 21.7546 46.7375 21.1382 47.0277C21.0307 47.0134 20.8623 46.9417 20.8014 47.0635C20.5506 47.0994 20.3105 47.1352 20.0704 47.1818C19.6726 47.447 18.9524 47.4362 18.483 47.4971C17.881 47.2785 18.2429 46.6192 17.9777 46.2215C17.9885 46.0172 17.9885 46.0172 17.8451 44.1539C17.9168 44.0571 17.9168 43.8421 17.8236 43.7454C17.8595 43.6988 17.8595 43.2401 17.9061 43.1792C17.7269 42.9535 17.8344 41.4019 17.9061 41.3302C17.881 40.9181 17.9311 39.4776 18.0996 39.2483C18.1103 39.0584 18.0852 38.8398 18.1569 38.6857H18.2787C18.2895 38.7215 18.3038 38.7574 18.3253 38.7932C18.8055 38.8398 19.3609 39.406 19.7586 39.406C19.7801 39.4418 19.8052 39.4884 19.8303 39.5385C19.8518 39.5135 19.8769 39.5027 19.902 39.4884C20.5613 39.646 21.2708 40.3914 21.9696 40.4989C22.0054 40.5347 22.0412 40.5705 22.0771 40.6207C22.267 40.4272 22.1129 39.9112 22.2311 39.6568C22.2096 38.6355 22.3422 37.625 22.3422 36.6181C22.3996 36.4963 22.353 36.378 22.3422 36.2455C22.4497 35.991 22.5465 34.7548 22.4246 34.5111C22.3422 34.5971 22.1595 34.5255 22.0412 34.5255C21.6936 34.7154 21.3425 34.9089 21.0056 35.1131C20.3356 35.174 19.4684 36.0018 18.8055 35.8585C18.8198 35.6685 18.7947 35.5825 18.9022 35.4249C18.8449 35.2959 18.8807 35.1633 18.8915 35.0307C18.9166 35.0164 18.9381 35.0056 18.9739 34.9949C19.0241 34.8265 19.0241 34.8265 19.0133 34.6795C19.2391 34.2854 19.2176 33.6225 19.5401 33.3C19.515 33.2641 19.5042 33.2247 19.4935 33.1889C19.6619 32.8771 19.6619 32.8771 19.816 32.4686C20.1528 32.5546 20.4896 32.5797 20.7441 32.8305C20.7799 32.8198 20.8265 32.8055 20.8766 32.7947C21.5467 32.9846 22.2813 33.3215 23.0016 33.4433C23.0983 33.54 23.772 33.7694 23.9296 33.7694C24.3955 34.031 25.3952 33.9951 25.7571 34.357C25.9363 34.357 25.9363 34.3678 26.0689 34.4538C26.5849 34.5362 27.1009 34.6437 27.5954 34.8265C27.7029 36.0878 27.7029 36.0878 27.7495 36.1344C28.4482 35.7402 29.3154 35.8119 30.0249 35.4858C30.3008 35.4392 30.3832 35.3675 30.4692 35.3675C30.4907 35.174 30.2399 35.1275 30.1073 35.0916V34.9805C29.9389 34.9555 29.4946 34.7655 29.4587 34.6437C29.2796 34.6795 29.0861 34.5971 28.9893 34.4395C28.9284 34.4287 28.8818 34.418 28.8316 34.418C28.8209 34.3821 28.8101 34.3463 28.7958 34.3212C28.6166 34.2603 28.3873 34.2352 28.2798 34.0668C28.1974 34.056 28.1114 34.056 28.029 34.056C28.0146 34.0095 28.0039 33.9593 27.9932 33.9235C27.5811 33.9235 27.2836 33.5615 26.8501 33.515C26.6458 33.4075 26.008 33.0097 25.8037 33.0097C25.7786 32.9739 25.7571 32.938 25.7321 32.913C25.707 32.9273 25.6855 32.938 25.6711 32.9631C25.3594 32.8305 25.3594 32.8305 25.2161 32.7087C24.9366 32.7338 23.8795 32.2178 23.7469 32.0852C23.1951 32.0852 22.7256 31.519 22.1846 31.519C22.1738 31.4832 22.1738 31.4474 22.1738 31.4223C21.9194 31.365 21.7904 31.365 21.6578 31.1356C21.622 31.1607 21.5861 31.1822 21.5611 31.2073C21.536 31.1715 21.5109 31.1464 21.5001 31.1213C21.4034 31.1105 21.321 31.0998 21.235 31.0855C21.0773 30.8812 20.8516 30.9421 20.7441 30.7128C20.6939 30.7128 20.6473 30.7128 20.5971 30.7271C20.5398 29.885 21.2601 29.3332 21.4285 28.5735C21.6936 28.6595 22.7507 28.2367 23.0625 28.226C23.0732 28.1901 23.0876 28.165 23.0983 28.14C23.2918 28.165 23.6036 28.0217 23.8078 27.9715C23.8795 27.4914 23.9046 26.8786 23.9046 26.3985C24.0981 26.0724 23.7361 25.327 24.3381 25.327C24.3381 25.2805 24.3381 25.2446 24.3489 25.2088C24.6965 24.9185 25.0226 24.2449 25.4669 24.1015C25.9363 23.6357 25.8288 23.5855 26.4057 23.8507C26.4057 23.8973 26.4165 23.9475 26.4272 24.0048C26.5849 24.055 26.6351 24.209 26.8035 24.2592C26.9576 24.7501 27.7495 25.1013 27.9573 25.5815C28.2189 25.714 28.3873 26.0365 28.6525 26.2193C28.7492 26.721 29.362 26.9754 29.4838 27.4555C29.7096 27.7816 30.0607 28.2367 30.179 28.6094C30.2292 28.6094 30.2757 28.6094 30.3367 28.6237C30.4083 28.8387 30.5516 29.2472 30.7666 29.344C30.7559 29.3798 30.7559 29.4156 30.7559 29.4515C30.781 29.4622 30.8168 29.4765 30.8526 29.498C30.8885 29.7525 30.8885 29.7525 30.9351 29.8134C30.7452 29.885 30.2506 30.0893 30.0356 30.0893C30.0356 30.4727 29.7812 30.8597 29.7597 31.2682C29.5913 31.9168 29.5662 32.2751 29.663 32.938H29.7454C29.7705 32.8055 29.7705 32.8055 29.878 32.698C29.878 32.4686 30.3725 31.9885 30.566 31.8451C30.5517 31.82 30.5517 31.795 30.5517 31.7735C30.8419 31.6265 31.0211 31.365 31.3687 31.2324C31.684 31.2897 32.0065 31.3506 32.3326 31.4223C32.3433 31.4474 32.3541 31.4725 32.3684 31.5083C32.5834 31.58 32.8844 31.6516 33.0636 31.795C33.0779 31.7591 33.0994 31.7233 33.1245 31.6982C33.2822 31.7125 33.2822 31.7125 33.4721 31.7842C33.1496 30.7271 32.5727 30.3186 31.6231 29.9101C31.4296 29.5482 31.3328 28.9462 31.0461 28.6954C30.8168 27.9142 30.3582 27.2656 29.9497 26.5561C29.9031 26.506 29.8529 26.4594 29.8063 26.4092C29.6164 26.015 29.0861 25.4955 28.9893 25.112C28.9535 25.1013 28.9284 25.087 28.9033 25.0762C28.8675 24.8827 28.7958 24.8361 28.6525 24.7143C28.4841 24.3309 27.9931 24.0048 27.9071 23.5855C27.4377 23.1161 26.8608 22.3493 26.6351 21.7473C26.5849 21.733 26.5383 21.7222 26.4989 21.7115C26.4666 21.6255 26.4272 21.543 26.3914 21.457C26.2946 21.432 25.9471 21.733 25.7786 21.758C25.7679 21.8046 25.7571 21.8548 25.7428 21.9014C25.7213 21.8763 25.6962 21.8655 25.6855 21.8548C25.6246 21.9157 25.6246 21.9157 25.4311 21.9372C25.2376 22.1916 25.0441 22.3959 24.7574 22.5392C24.6857 22.6467 24.6248 22.8151 24.4815 22.8151C24.2414 23.0803 23.9296 23.2129 23.7612 23.5139C23.3527 23.754 23.0876 24.0908 22.8116 24.4993C22.7041 24.5602 21.3317 24.7286 21.2601 24.6534C21.1991 24.7036 20.5971 24.7035 20.2245 24.7501C20.203 25.2446 20.1886 25.7356 20.1779 26.2408C20.2854 26.3877 20.2388 27.3373 20.1421 27.5272C20.1671 27.5523 20.203 27.5774 20.2388 27.6025C20.2137 27.649 20.203 27.6956 20.1886 27.7458C20.203 27.7565 20.2137 27.7816 20.2388 27.8031C20.203 27.8784 20.1779 27.9608 20.1528 28.0468C20.117 28.0468 20.0919 28.0575 20.0704 28.0683C20.0453 28.1543 20.0202 28.2367 19.9987 28.3227C19.9629 28.3227 19.9235 28.3227 19.8876 28.3335C19.8661 28.5162 19.7801 28.7061 19.6117 28.8136C19.6476 28.8996 19.3501 29.2006 19.3107 29.369C19.2283 29.3905 19.1817 29.5339 19.1065 29.5697V29.6915C18.5188 30.5695 18.2178 31.58 17.7735 32.5295C17.7484 32.6872 17.7269 33.0455 17.58 33.1172C17.58 33.4899 17.3148 33.9485 17.2575 34.3463C16.9816 34.6222 17.1715 35.2959 16.8597 35.6076C16.8346 35.9552 16.7522 36.1845 16.6555 36.5214C16.5121 37.8185 16.2219 38.9616 16.2219 40.223C16.1861 40.2373 16.161 40.248 16.1395 40.2588C16.1968 40.4738 16.1753 40.8823 16.1395 41.1116C16.1251 42.158 16.1251 43.2401 16.2362 44.2972C16.1144 44.3474 16.1144 44.3474 15.7883 44.6591C15.7668 44.6448 15.7417 44.6448 15.731 44.6448C15.5482 44.8741 14.9606 45.4045 14.7205 45.4045C14.613 45.6195 14.2045 45.9097 13.9751 46.0065C13.9501 46.0889 13.9286 46.1713 13.9035 46.268C13.8676 46.268 13.8318 46.268 13.796 46.2824C13.8784 46.716 13.0256 47.1603 13.0256 47.4971C12.8822 47.7372 12.7353 47.9773 12.592 48.2174C12.5669 48.5399 12.5454 49.0595 12.3268 49.2745C12.3626 49.5038 12.2301 49.7546 12.3268 49.9481C12.2659 50.0664 12.3053 50.1273 12.3268 50.2491C12.1942 50.5358 12.2301 51.3062 12.377 51.6072C12.3411 51.6323 12.3053 51.6538 12.2659 51.6789C12.4379 51.7864 12.377 51.919 12.3626 52.0766C12.5311 52.4135 12.5812 52.9044 12.5812 53.277C12.592 53.277 12.6171 53.277 12.6421 53.2914C12.6529 53.3989 12.6636 53.5064 12.6887 53.6282C12.7138 53.639 12.7496 53.6497 12.7855 53.664C12.7962 53.8074 12.8213 53.9507 12.8464 54.094C12.8822 54.1191 12.9181 54.1442 12.9646 54.18C12.9897 54.4201 13.1796 54.6602 13.1331 54.8752C13.2047 54.9361 13.2047 54.9361 13.5308 55.5381C13.5057 55.5489 13.4914 55.574 13.4806 55.599C13.9142 56.0792 14.1686 56.6669 14.7061 57.0754C14.7061 57.1005 14.7205 57.1255 14.7312 57.1614C15.0931 57.5806 15.6808 57.8709 16.1395 58.1575C16.6662 58.3045 17.2431 58.5804 17.7269 58.842C17.7376 58.8205 17.7484 58.8061 17.7735 58.7954C18.268 58.842 18.698 59.0498 19.2032 58.9996C19.7443 59.1465 20.3212 58.8921 20.8623 58.9387C21.3676 58.6771 21.7402 58.6986 21.9086 59.3257C22.1236 59.4583 22.6898 59.9743 22.6898 60.1893C22.869 60.2251 23.0266 60.3326 23.0266 60.5261C23.1592 60.587 23.256 60.6229 23.2918 60.7555C23.471 60.7555 24.073 61.3324 24.073 61.5259C24.1196 61.5366 24.1805 61.5474 24.2414 61.5725C24.4349 61.8376 24.8792 61.981 24.9975 62.2927C25.4311 62.4611 25.7571 63.038 26.2481 63.1706C26.2839 63.339 26.3305 63.3534 26.524 63.3749C26.6924 63.64 26.9934 63.8335 27.2944 63.8945C27.6061 64.242 28.1974 64.3495 28.459 64.6971C28.4841 64.6864 28.5091 64.6864 28.5342 64.6864C28.545 64.7222 28.5557 64.758 28.5808 64.7939C28.8317 64.733 28.9786 64.9014 29.1327 65.059C29.1685 65.0483 29.2043 65.0483 29.2545 65.0483C29.362 65.2167 30.7666 65.7435 31.0569 65.851C31.0569 65.876 31.0676 65.9011 31.082 65.937C31.1393 65.9262 31.2002 65.9119 31.2719 65.9011C31.6481 66.1412 32.4257 66.152 32.6909 66.4171C33.2463 66.4171 33.834 66.8149 34.3858 66.8149C34.6044 66.8973 35.0344 66.8865 35.167 67.0191C35.4071 67.0191 35.6364 67.0442 35.8908 67.1875C35.9123 67.1625 35.9482 67.1374 35.9876 67.1266C36.1524 67.2341 38.1627 67.5244 38.2343 67.4527C38.4027 67.5817 38.8363 67.4276 38.9546 67.6426C39.0047 67.6319 39.0621 67.6175 39.123 67.6068C39.0047 67.3201 38.8722 67.1266 38.6321 66.8973C38.4995 66.4995 37.9799 66.2953 37.9799 65.8402C38.0552 65.8151 38.2702 65.8653 38.2952 65.9011C38.4637 65.8044 39.8074 65.9262 40.0117 66.0552C40.4452 66.0803 40.8788 66.1054 41.3124 66.1269C41.875 66.4279 42.3193 66.994 42.8855 67.3058C42.9715 67.1517 43.1256 66.9582 43.3298 66.9582C43.3907 66.6823 43.81 66.4995 43.81 66.2845C43.9784 66.3347 44.197 65.8904 44.4263 65.8151C44.4371 65.7685 44.4478 65.722 44.4622 65.6825C44.8456 65.5285 44.9172 65.1056 45.3007 65.0125C45.3508 64.8799 45.3508 64.8799 45.4691 64.7222C45.4332 64.5789 45.3867 64.5538 45.3723 64.4355C45.1573 64.4105 44.8922 64.242 44.8205 64.0235V64.0235ZM32.1856 52.6177C32.2107 53.1337 32.4508 53.6031 31.9707 53.965C31.813 54.0224 31.6589 54.0833 31.5012 54.1442C31.4188 53.9865 31.2612 53.9292 31.1644 53.793C31.0318 53.037 31.2862 52.46 32.1856 52.6177ZM19.7085 36.8224C19.7192 36.7973 19.7336 36.7722 19.7443 36.7507C20.0919 36.7507 20.3463 36.3995 20.6939 36.4497C20.6939 36.8582 20.6939 37.2667 20.7082 37.6752C20.5398 37.926 20.8874 37.926 20.4896 37.987V37.9153C20.4072 37.8902 20.3212 37.8795 20.2496 37.8687V37.7935C20.1062 37.711 20.0704 37.6609 19.8876 37.6609C19.6726 37.3384 19.0348 37.4602 18.9631 37.0266C19.2032 37.1449 19.4576 36.9048 19.7085 36.8224V36.8224ZM21.3317 26.3519C21.4536 26.3877 21.6327 26.3519 21.7151 26.2659C22.5931 26.1118 22.5931 26.1118 22.9299 26.0867C22.9048 26.445 22.9048 26.445 22.8224 26.6744C22.8331 26.6887 22.8475 26.7102 22.869 26.7353C22.7256 26.9646 22.7866 27.2513 22.7866 27.5057C22.4856 27.8031 21.7402 27.5881 21.2851 27.7315C21.2457 27.71 21.2099 27.6849 21.1884 27.6598C21.1741 27.2871 21.1275 26.6278 21.3317 26.3519V26.3519ZM18.8449 37.0266H18.7231C18.7123 37.0015 18.698 36.9765 18.6872 36.9657C18.6263 36.9514 18.5654 36.9514 18.5188 36.9514C18.5045 36.869 18.5045 36.7973 18.5045 36.7256C18.6156 36.8331 18.7947 36.8797 18.8449 37.0266ZM18.3253 36.7507C18.3396 36.7507 18.3611 36.7615 18.3862 36.7722C18.3611 36.7865 18.3396 36.808 18.3253 36.8331V36.7507ZM18.2071 36.593H18.2787V36.6647H18.2071V36.593ZM37.9226 65.876H37.8366V65.8044H37.9226V65.876ZM42.7422 65.8402C42.7278 65.8904 42.7278 65.937 42.7278 65.9979H42.6454C42.3802 65.6467 41.9108 65.3457 41.5632 65.0949V65.0125C41.8284 64.7831 42.0792 64.2886 42.3946 64.2313C42.4053 64.1596 42.4412 63.941 42.5737 63.9769C42.7063 64.3997 43.4624 64.5681 43.5842 65.0483C43.294 65.1665 43.0897 65.6969 42.7422 65.8402V65.8402Z" fill="white"/>
<path d="M52.7432 67.3201V67.3667H52.779V67.3201H52.7432Z" fill="white"/>
<path d="M56.0255 66.9582C56.1688 66.9474 56.3157 66.9474 56.4698 66.9474C57.0575 66.478 56.8174 66.3813 56.5916 65.7578C55.8212 65.4568 55.531 66.4637 56.0255 66.9582Z" fill="white"/>
<path d="M37.8364 65.8761H37.9224V65.8044H37.8364V65.8761Z" fill="white"/>
<path d="M57.8527 64.3245C57.2149 64.5323 57.2041 64.8906 57.394 65.4819C57.4442 65.4819 57.4908 65.4926 57.5409 65.5034C57.5266 65.5285 57.5159 65.5643 57.5159 65.6001C57.5624 65.5643 57.6234 65.5285 57.6843 65.4926C57.7309 65.5177 57.7918 65.5392 57.8527 65.575C57.9244 65.5034 57.9494 65.4926 58.082 65.4926C58.2504 65.2884 58.2505 65.2884 58.4045 65.0125C58.3329 64.6505 58.2254 64.4463 57.8527 64.3245Z" fill="white"/>
<path d="M40.1582 63.7117V63.7618H40.2048V63.7117H40.1582Z" fill="white"/>
<path d="M52.2269 62.2712V62.2354H52.1768V62.2712H52.2269Z" fill="white"/>
<path d="M37.6681 58.8778C37.6323 58.8671 37.6072 58.8563 37.5857 58.842C36.9479 59.1824 36.4068 59.6375 36.4068 60.4545C36.371 60.4903 36.3459 60.5261 36.3208 60.562H36.3817C36.4785 60.7196 36.5143 60.9705 36.5967 61.1532C36.6361 61.1532 36.672 61.1532 36.7078 61.164C36.8655 61.4291 37.1163 61.5366 37.3564 61.7158C38.3561 61.6441 38.6321 61.4291 39.209 60.7196C39.2914 60.0711 39.2914 60.0711 39.338 59.9743C39.2197 59.7557 39.1122 59.0606 38.7754 59.0606C38.3776 58.7954 38.1626 58.7237 37.6681 58.8778ZM38.5353 60.6838C38.392 60.8271 38.1268 60.9597 37.9333 61.0565C37.9082 61.0314 37.8831 61.0206 37.8724 61.0063C37.8258 61.0206 37.79 61.0457 37.7541 61.0672C37.1414 60.8988 37.1271 60.7806 37.0912 60.1427C37.2704 59.5407 38.0551 59.1573 38.4995 59.7091C38.5568 59.7342 38.6177 59.7557 38.6786 59.7916C38.6786 60.0926 38.6321 60.3828 38.5353 60.6838V60.6838Z" fill="white"/>
<path d="M45.1215 58.842C44.8563 58.9173 44.0644 59.1215 43.7992 59.0355C43.4875 59.3473 42.563 58.989 42.2835 59.3975C42.1043 59.4225 41.2264 59.5408 41.083 59.3975C40.9039 59.3867 40.3735 59.3975 40.3019 59.2398C40.1191 59.3724 40.0618 59.6017 39.9292 59.7916C39.9507 59.8167 39.9758 59.8525 40.0116 59.8884C40.0367 59.8669 40.0618 59.8525 40.0976 59.8418C40.2517 59.9385 40.4703 59.9636 40.6853 60.0711C40.843 60.107 41.144 60.0926 41.2371 60.1894C41.66 60.1786 42.6454 60.2145 42.9213 59.8525C43.595 59.6375 44.6413 59.72 45.3866 59.7343C45.6375 59.591 45.6733 59.29 45.6267 59.0105C45.4834 58.8671 45.2899 58.9531 45.1215 58.842V58.842Z" fill="white"/>
<path d="M51.299 56.0433C51.3957 55.8139 51.5032 55.7064 51.7469 55.7064C51.7576 55.5846 51.7576 55.5846 51.9153 55.2263H52.0586C52.0586 55.1761 52.0694 55.1295 52.0837 55.0937C52.5137 54.7676 52.3847 54.0939 52.9831 53.8431C53.0691 53.4704 53.6819 53.0261 53.9578 52.761C53.9435 52.5925 53.9327 52.4349 53.922 52.2808C53.8001 52.1948 53.6819 52.1124 53.5744 52.0264C53.4525 52.1482 53.3701 52.2664 53.1766 52.2664C53.044 52.4492 52.8147 52.6893 52.8147 52.9294C52.7538 52.9294 52.7072 52.9294 52.6606 52.9401C52.6463 53.001 52.6463 53.0619 52.6463 53.1229C52.4779 53.2196 52.4779 53.2304 52.4062 53.4095C52.1195 53.5063 52.1052 54.0474 51.8042 54.1441C51.8042 54.4917 51.2524 55.1188 51.0589 55.3589C50.568 55.5631 50.2168 55.8283 50.2168 56.3801H50.3028V56.4984C50.6504 56.4518 50.9657 56.0433 51.299 56.0433V56.0433Z" fill="white"/>
<path d="M73.806 45.1645C73.7809 45.1286 73.7701 45.0928 73.7558 45.057C73.7916 44.695 73.6841 43.0718 73.6376 43.036C73.4691 42.3014 73.3939 42.1688 73.3939 42.0147C73.1323 41.3661 72.6987 40.8 72.3977 40.1872C72.1218 39.8755 71.5556 39.5601 71.4374 39.1767C71.0146 38.9725 70.6921 38.6464 70.3445 38.3346C70.1008 38.3346 69.85 38.1805 69.6708 38.048C69.5239 38.048 68.9111 37.9978 68.8645 37.9261C68.5026 37.8903 66.7719 37.5069 66.3992 37.7828C66.3741 37.7577 66.3526 37.747 66.3383 37.7362C65.3171 37.8294 64.2349 38.2988 63.3462 38.7682C63.3355 38.9617 63.3462 39.0692 63.5146 39.1158C63.5505 39.3344 63.6221 39.5494 63.8765 39.6103C63.8622 39.6569 63.8622 39.707 63.8622 39.7644C64.2241 39.9113 64.4642 40.1514 64.7043 40.4524C64.9587 40.5491 65.0519 40.7283 65.317 40.8C65.3529 40.9433 65.5464 41.0759 65.7041 41.0759C65.7148 41.1117 65.7256 41.1475 65.7506 41.1977C66.3383 41.4844 66.9045 42.0613 67.5423 42.133C67.5316 42.0971 67.5172 42.0613 67.5065 42.0398C67.5065 40.9791 67.4706 39.897 67.4205 38.8399C67.5172 38.8542 67.5172 38.8542 67.639 38.7682C68.1765 38.865 68.9613 38.6464 69.3913 39.08C69.4271 39.0692 69.4666 39.0585 69.5131 39.0441C69.9216 39.2985 70.4161 39.4311 70.6777 39.836C71.0289 40.008 71.4625 40.5491 71.6058 40.8967C71.6166 40.8824 71.6273 40.8824 71.6524 40.8824C71.7384 41.1368 72.0143 41.402 72.0143 41.7137C72.0501 41.7137 72.086 41.7137 72.1218 41.7245C72.1326 41.8212 72.1576 41.918 72.1827 42.0147C72.4336 42.3265 72.4336 42.7959 72.6378 43.1578C72.7596 43.7562 73.3115 45.7163 73.0714 45.9564C73.204 46.3183 73.0355 48.0849 72.7453 48.3751C72.8671 48.6869 72.5661 48.9986 72.5303 49.3247C72.4945 49.3355 72.4586 49.3462 72.4336 49.3605C72.4336 50.199 71.3406 51.2812 70.9787 52.0051C70.9071 52.0409 70.8354 52.0767 70.7745 52.1125C70.7279 52.306 70.452 52.5103 70.3194 52.7253C70.1259 52.9045 69.8392 53.037 69.7174 53.2771C69.6708 53.2664 69.635 53.2556 69.5956 53.2413C69.5239 53.313 69.4666 53.3846 69.4056 53.4706H69.3196C69.3698 53.639 69.0688 53.7465 68.947 53.7931C68.9362 53.8182 68.9255 53.854 68.9255 53.8899C68.8896 53.8899 68.8538 53.8899 68.8144 53.9042C68.7678 54.0583 67.9257 54.5636 67.7107 54.5636C67.6964 54.5994 67.6856 54.6352 67.6749 54.6854C67.4957 54.732 67.3631 54.8395 67.1696 54.8645C66.8435 55.1906 65.894 55.2623 65.4604 55.334C65.4604 55.5991 65.4246 55.85 65.6897 55.9825C65.9549 55.8141 66.3741 55.7783 66.6895 55.5991C66.9869 55.5991 67.9615 55.1906 68.0583 54.9864C68.9111 54.8036 69.549 53.8684 70.3194 53.5065C70.4735 53.1947 70.8246 53.012 71.0145 52.7145H71.1006C71.1973 52.4601 71.484 52.195 71.7133 52.0265C71.9641 51.5249 72.5052 51.0913 72.6629 50.5359C72.6987 50.5251 72.7345 50.5144 72.7847 50.5144C72.7847 50.4535 72.7847 50.3926 72.7955 50.3316C73.0248 50.2241 73.2147 49.6006 73.3115 49.3462C73.419 48.5901 73.5766 47.8555 73.7092 47.0995C73.72 46.9561 73.6841 45.9922 73.806 45.874C73.7809 45.8596 73.7558 45.8489 73.7451 45.8381C73.7451 45.6088 73.7092 45.358 73.806 45.1645V45.1645ZM66.0015 39.7895C65.9191 39.8002 65.8331 39.8145 65.7614 39.836C65.6646 39.4419 65.0913 39.4311 65.0053 39.1516C65.3421 39.0943 65.679 39.0334 66.0158 38.9725C66.0409 39.1301 65.98 39.2627 66.0015 39.7895Z" fill="white"/>
<path d="M72.4585 51.1376H72.4943V51.0911H72.4585V51.1376Z" fill="white"/>
<path d="M68.7424 50.0915C68.8392 50.1023 68.9467 50.1274 69.0578 50.1524C69.0685 50.1775 69.0793 50.2134 69.09 50.2492C69.7171 50.1524 70.3048 49.5755 69.9106 48.9162C69.8963 48.866 69.8963 48.8194 69.8963 48.7693C69.8139 48.7442 69.7279 48.7334 69.6562 48.7227C69.6347 48.6725 69.6204 48.6259 69.6096 48.5758C69.477 48.6009 69.3444 48.5543 69.2477 48.4575C68.4307 48.8194 68.3483 49.3713 68.7424 50.0915V50.0915Z" fill="white"/>
<path d="M69.2624 47.3287C69.4415 47.3394 69.4415 47.3394 69.5383 47.4111C69.6099 47.3502 69.6099 47.3502 69.8608 47.3036C69.9719 47.2069 70.0794 47.1101 70.1868 47.0134C70.4018 46.2465 70.1009 45.838 69.3555 45.7771C69.0796 45.9097 68.9255 45.9921 68.7428 46.2465C68.7571 46.268 68.7786 46.2931 68.8037 46.3182C68.4919 46.6299 69.0438 47.171 69.2624 47.3287V47.3287Z" fill="white"/>
<path d="M61.7944 46.4866V46.5224H61.8446V46.4866H61.7944Z" fill="white"/>
<path d="M56.9282 44.2613V44.4799C56.6129 45.2467 56.9031 45.691 57.5051 46.1855C57.5159 46.1604 57.541 46.1497 57.5625 46.1389C57.6126 46.1712 57.6126 46.1712 58.1537 46.1855C58.1645 46.1963 58.1788 46.2214 58.1895 46.2464C58.9815 46.0279 59.329 45.6803 59.6193 44.8884C59.5225 43.9495 59.2825 43.6593 58.3436 43.4084C57.5051 43.4694 57.4442 43.8779 56.9282 44.2613V44.2613ZM57.4299 44.5981C57.455 44.5874 57.4908 44.573 57.5266 44.573V44.4655C57.6234 44.4297 57.6485 44.3473 57.9244 44.1179C58.6446 43.9997 58.8632 44.4297 58.7665 45.1392C58.6088 45.2359 58.4189 45.4402 58.272 45.5835C58.2254 45.5728 58.1788 45.562 58.1286 45.5477C58.082 45.6552 57.8742 45.6337 57.756 45.6444C57.6592 45.5262 57.5051 45.4402 57.4084 45.2969C57.4084 45.0568 57.4191 44.8274 57.4299 44.5981V44.5981Z" fill="white"/>
<path d="M36.9729 34.0918C36.9729 34.3211 37.1771 35.0163 37.0445 35.1489C37.2488 35.4248 37.066 35.8118 37.2129 36.0985C37.0553 36.4138 37.3563 36.808 37.2488 37.1448C37.3312 37.2308 37.3204 37.5784 37.3204 37.6859C37.5104 37.926 37.2703 38.3237 37.4279 38.4778C37.4029 38.6713 37.4172 39.4166 37.5247 39.4668C37.5964 40.8464 38.0765 43.6593 36.1523 44.0463C35.8298 44.2613 33.3035 44.6806 33.1602 44.3473C32.4865 44.2004 31.9096 43.7453 31.4187 43.2866C31.4044 43.2293 31.4044 43.1684 31.4044 43.1075C31.3685 43.086 31.3435 43.0609 31.322 43.0358C31.322 42.9176 31.3327 42.8459 31.2503 42.7599C31.2252 42.3872 31.2145 42.0253 31.2001 41.667C31.5728 40.4988 31.9455 39.345 32.3325 38.1911C32.2823 38.1446 32.2465 38.0944 32.2106 38.0478H32.1282C31.9813 38.3596 31.7305 38.6355 31.6839 38.9831C31.648 39.0081 31.623 39.0332 31.5979 39.0583C31.6337 39.2267 31.2969 39.8753 31.2001 39.9721C31.021 40.9575 30.72 41.8569 30.6841 42.8781C30.5659 43.3476 30.72 43.9245 30.6841 44.4046C30.8167 44.4656 30.9242 44.6232 30.9242 44.7666C31.021 44.8275 31.0568 44.8884 31.0819 45.021C31.2252 45.0926 31.4653 45.2611 31.4653 45.4402C31.5011 45.4402 31.537 45.4402 31.5728 45.451C31.5728 45.4868 31.5728 45.5262 31.5871 45.5621C31.6588 45.5728 31.7305 45.5836 31.8129 45.6086C31.8272 45.6445 31.838 45.6803 31.8523 45.7269C31.9096 45.7412 31.9813 45.752 32.0565 45.7771C32.3683 46.0171 32.7051 45.9347 32.9918 46.0781C33.0527 46.053 33.1136 46.0422 33.1853 46.0279C33.196 46.053 33.2104 46.0888 33.2319 46.1246C33.798 46.1139 34.9053 46.2214 35.3855 45.9813C35.7832 45.9813 36.8152 45.6194 36.9944 45.3435C37.5605 45.0676 38.0909 44.2255 38.2951 43.6378C38.331 43.3834 38.3309 43.3834 38.3668 40.6565C38.3309 40.6421 38.3059 40.6314 38.2808 40.6206C38.27 40.1261 38.2593 39.6352 38.2593 39.1407C38.1984 38.6856 38.1374 38.227 38.1733 37.7719C38.0658 37.7002 37.8472 34.7046 37.8472 34.6078C37.8114 34.5827 37.8114 34.2961 37.7289 33.8768C37.7648 33.5149 37.9081 33.3572 38.2234 33.1781C38.5352 32.8663 38.4134 32.0242 38.3309 31.605C38.2342 31.4831 38.0765 31.4366 37.883 31.2789C37.5247 31.1965 37.2703 30.7271 36.851 30.7271C36.851 30.9671 36.6468 31.8558 36.7435 31.9526C36.7292 32.0601 36.7292 32.0601 36.6826 32.121C36.6934 32.1425 36.7077 32.1676 36.7292 32.1926C36.5751 32.5187 36.7543 33.8768 36.9729 34.0918V34.0918Z" fill="white"/>
<path d="M46.4434 41.6418C46.361 41.9894 46.7444 42.6021 46.576 42.9389C46.6477 43.0106 46.6728 43.4442 46.6728 43.5768C47.4288 43.6735 48.3426 43.6592 49.113 43.6592C49.4498 43.8061 50.5428 43.7094 50.8545 43.6986C51.048 43.9853 52.4921 43.5875 52.8397 43.8634C52.983 43.7201 53.5599 43.8634 53.7427 43.9029C54.3303 43.8419 55.0506 43.8527 55.6275 43.9244C55.5666 43.3976 55.7243 42.8064 55.7709 42.2796C55.6526 42.0861 55.3516 41.7493 55.1115 41.7493C55.1008 41.7027 55.0864 41.6525 55.0757 41.6167C55.0399 41.6059 55.0148 41.5952 54.9897 41.5809V41.4734C54.7998 41.4375 54.7854 41.4017 54.6672 41.244C54.2945 40.9179 54.1261 40.8104 53.8717 40.4163C53.585 40.2729 53.4524 39.9576 53.1658 39.7892C53.0081 39.4774 52.3093 38.707 51.9618 38.5744C51.5174 37.976 50.0984 38.0584 49.4749 38.0477C49.2922 38.492 49.027 39.1514 48.6902 39.4882C48.812 39.5133 48.9912 39.4774 49.0521 39.61C49.0628 39.5849 49.0772 39.5742 49.0987 39.5599C49.2707 39.5742 49.4391 39.5849 49.6039 39.5993C49.6183 39.61 49.629 39.6351 49.6433 39.6566C50.231 39.6566 52.2628 40.7029 52.4061 41.1616C52.7429 41.2548 53.284 41.7027 52.8863 42.0503C52.7322 41.9428 51.5998 41.9428 51.2523 41.9894C51.1913 41.9428 51.1914 41.9428 50.5428 41.8926C50.2776 42.0001 49.1345 41.8568 48.8013 41.8102H47.5722C47.5614 41.7493 47.5507 41.6884 47.5507 41.631C47.2497 40.7173 47.1888 39.7426 46.9845 38.8181C46.9845 38.4562 46.5868 36.3994 46.7552 36.2309L46.6728 36.1485C46.5868 34.7761 46.5868 34.7761 46.5509 34.6579C46.5653 34.6328 46.576 34.6077 46.6011 34.5969C46.5151 34.4894 46.4936 33.8982 46.5509 33.7692C46.4542 33.4539 46.4685 33.1314 46.4685 32.8053C46.4183 32.5294 46.3718 32.2534 46.3359 31.9883C46.2392 32.1674 46.2392 32.1674 46.1066 32.2642C46.1066 32.2749 45.8414 32.8662 45.8307 32.9629C45.9167 33.5614 46.1783 34.7403 45.9883 35.3315C46.2033 35.8834 45.9274 36.7254 45.9525 37.3489C45.7841 37.9259 45.6264 38.5171 45.4688 39.1048C45.3505 39.2374 45.3505 39.2374 45.1821 39.5849C45.0495 39.7426 44.7843 39.9576 44.7843 40.1869C44.6518 40.2729 44.5944 40.2944 44.5586 40.4629C44.3042 40.5847 44.1823 40.8821 43.9064 40.9323C43.8348 41.2333 43.3295 41.3515 43.1503 41.631C42.7884 41.7027 42.405 41.9894 42.104 42.2187C42.0682 42.1936 42.0431 42.1829 42.0216 42.1685C41.8173 42.3154 41.7564 42.448 41.4554 42.448C41.4303 42.4695 41.4053 42.4946 41.3945 42.5304C40.6993 42.8673 39.9504 43.1324 39.2553 43.4191C39.2302 43.6019 39.2087 43.781 39.1836 43.9745C39.5813 43.9745 39.5813 43.9745 39.6745 44.0211C39.9755 44.0211 40.3733 43.8885 40.6026 44.1179C40.6026 44.0713 40.6133 44.0354 40.6241 43.9996C40.6743 43.9996 41.4554 43.9996 41.5378 43.9136C42.1542 43.8276 42.6451 43.6377 43.222 43.4191C43.3295 43.2865 43.3295 43.2865 43.9423 42.8924C43.9924 42.7956 44.3042 42.4946 44.5693 42.3011C44.641 42.1829 44.6303 42.1112 44.7843 42.061C44.8345 41.846 44.6052 41.9786 44.9778 41.7744C45.0603 41.4984 45.3863 41.2189 45.3863 40.9681C45.7124 40.4736 45.9382 39.8358 46.275 39.3341C46.3108 39.3699 46.3108 39.3699 46.2643 40.1511C46.2643 40.2371 46.3718 41.5701 46.4434 41.6418V41.6418Z" fill="white"/>
<path d="M27.7492 40.4522C27.3766 40.2838 27.3766 40.2838 27.33 40.2121C27.029 40.1978 26.3912 40.1404 26.2478 40.4271C25.5168 40.789 24.9865 42.337 26.0185 42.6738C26.0687 42.8208 26.2371 42.8781 26.3804 42.9175C26.6563 42.9032 27.3766 42.8673 27.5092 42.6022C28.0897 42.4588 28.1362 41.52 28.1613 41.0291C28.0646 40.9682 28.0502 40.8607 28.0395 40.7388L27.7492 40.4522ZM26.9466 42.1328C26.7674 42.1471 26.5847 42.1686 26.4162 42.1937C25.5742 41.8819 25.9468 41.305 26.2729 40.7747C26.5847 40.6815 26.8857 40.5489 27.1974 40.7388C27.3407 40.9431 27.3407 40.9431 27.4124 40.9789C27.4124 41.1832 27.4124 41.391 27.4267 41.606C27.2691 41.7243 27.029 41.9643 26.9466 42.1328V42.1328Z" fill="white"/>
<path d="M40.6853 42.6022V42.5557H40.6387V42.6022H40.6853Z" fill="white"/>
<path d="M56.7097 42.6022V42.5557H56.6738V42.6022H56.7097Z" fill="white"/>
<path d="M58.8491 40.9073C58.756 40.7747 58.4048 40.2587 58.5374 40.0903C58.308 39.8001 58.4908 39.4059 58.4048 39.13C58.4048 38.3488 58.455 36.8796 57.853 36.2812C57.8028 36.1343 57.7562 35.991 57.7204 35.8476C57.6845 35.8369 57.6595 35.8226 57.6344 35.8118C57.6738 35.6792 57.5627 35.5717 57.4803 35.4965C57.5161 35.3782 57.337 34.9697 57.337 34.7762C57.0216 34.3928 57.1542 33.2246 57.491 32.8914C57.4803 32.8412 57.466 32.8054 57.4552 32.7696C57.9963 32.2285 57.3943 31.8558 56.8532 32.1425C56.6991 32.3145 56.5415 32.4829 56.3981 32.6621C56.0362 32.7337 55.6277 33.2856 55.3625 33.5256C55.341 33.6941 55.341 33.6941 55.2801 33.7299C55.2801 33.9843 55.1475 34.572 55.04 34.8013C55.0508 34.8264 55.0615 34.8479 55.0866 34.8837C55.0042 35.4391 55.1475 35.6183 55.2694 36.1128C55.3984 36.077 55.6779 36.5571 55.9789 36.6396C56.348 37.0122 56.8532 36.6181 57.1793 36.4138C57.9103 36.3636 58.0823 37.7468 57.9963 38.2736H58.1038C58.1038 38.4061 58.0429 38.9831 57.9963 39.0081C58.0214 39.0332 58.0572 39.0583 58.093 39.0798C58.0572 39.13 58.0572 39.13 57.9855 39.8968C57.6595 40.162 57.7562 40.4164 57.6129 40.7891C57.5878 41.0865 57.6487 41.3767 57.6129 41.6526C57.6344 41.6777 57.6595 41.7028 57.6953 41.7243C57.6738 41.9536 57.792 42.3263 58.0321 42.398C58.695 42.0755 59.0426 41.6061 58.8491 40.9073V40.9073ZM56.1473 35.991C55.9036 35.8118 55.6385 35.7258 55.5811 35.389C55.5453 35.3782 55.5095 35.3675 55.4844 35.3531C55.3518 34.6078 55.7245 34.0811 56.4698 34.2244C56.4698 34.2495 56.4805 34.2853 56.4949 34.3211H56.6024C57.1076 34.8837 56.95 35.7616 56.1473 35.991V35.991Z" fill="white"/>
<path d="M63.6006 41.9536V42.0002H63.6472V41.9536H63.6006Z" fill="white"/>
<path d="M41.7819 34.9949C42.022 34.7548 42.6813 34.6581 42.6813 35.149H42.839C42.839 35.1992 42.8497 35.2458 42.8605 35.3067C42.8963 35.3318 42.9357 35.3533 42.9823 35.3783C43.0432 35.6543 43.3442 35.8585 43.3442 36.1237C43.8602 36.4247 44.0287 37.5068 44.5447 37.8903C44.5447 38.0479 44.7023 38.1303 44.774 38.2737H45.0141C45.0141 38.1196 45.0141 37.9619 45.0248 37.8186C45.0033 37.3993 44.7847 37.0374 44.7847 36.654C44.473 36.4247 44.4013 35.4393 44.1003 35.2959C44.0645 35.1132 43.8961 35.0523 43.8602 34.848C43.5951 34.7656 43.6452 34.3929 43.4016 34.3213C43.3299 34.031 42.7996 33.6942 42.8247 33.4075C42.237 32.9273 41.6493 32.4328 40.9613 32.0709C40.9398 32.0351 40.9147 31.9993 40.904 31.9778C40.603 31.9527 39.8935 31.5693 39.6892 31.8201C39.8075 32.3003 39.4957 32.7804 39.8075 33.2498C39.8433 33.5974 39.9652 33.6583 40.0977 33.9952C40.517 34.1636 40.9255 34.7298 41.2265 35.0773C41.4809 35.0773 41.4809 35.0773 41.7819 34.9949V34.9949Z" fill="white"/>
<path d="M58.634 26.9861C58.5014 27.1437 58.4298 27.2047 58.3796 27.3946C58.3223 27.4089 58.2613 27.4197 58.2148 27.434C58.1538 27.5415 58.0929 27.6597 58.032 27.7816C57.6486 28.0324 56.9283 28.9354 56.4697 28.9354V28.7777C56.1687 28.5986 56.0003 28.2617 55.7351 28.0217C55.6527 28.3334 55.5667 28.6452 55.4843 28.9712C55.5667 29.2006 55.3158 30.8596 55.6168 31.003C55.7853 30.9313 56.1328 30.7271 56.1938 30.5443C56.3729 30.5085 56.8316 30.1143 56.9033 29.9567C56.9391 29.971 56.9749 29.9817 57.0215 29.9925C57.1433 29.8957 57.1433 29.6091 57.4085 29.6449C57.5268 29.5482 57.5268 29.5481 57.5769 29.4156H57.7561C57.7561 29.3546 57.7561 29.3081 57.7668 29.2579C57.817 29.2364 57.8636 29.2221 57.9102 29.2113C57.9102 29.1755 57.9102 29.1397 57.9245 29.1038C58.032 29.0322 58.1538 28.9712 58.2721 28.9103C59.0067 28.0324 60.0638 27.3838 60.9918 26.7352C61.1818 26.9287 61.3143 27.1079 61.5903 27.1437C61.8196 27.4698 61.8196 27.4698 61.902 27.5057C61.8913 27.6132 61.8913 27.6132 61.9378 27.7099C61.9737 27.7207 62.0238 27.7314 62.0704 27.7457C62.0597 27.7923 62.0597 27.8532 62.0597 27.9142C62.0955 27.9357 62.1457 27.9607 62.1923 27.9966C62.1457 28.1041 62.7799 29.2472 62.9018 29.4263C62.6473 29.6915 62.4323 30.0642 62.0955 30.2326C61.9988 30.5443 61.6512 30.5587 61.5078 30.8453C61.4577 30.8597 61.4111 30.8704 61.3753 30.8812C61.3609 30.9062 61.3502 30.9313 61.3502 30.9672C61.1603 30.9922 61.0026 31.0639 60.9524 31.2323C60.2788 31.519 59.6087 31.8558 58.8848 31.9992C58.634 31.6623 58.5122 31.2323 58.5623 30.7987C58.5265 30.7486 58.5265 30.6411 58.2864 30.1143H58.1789C58.0678 30.2577 57.8027 30.8597 57.9353 30.9922C57.8636 31.1105 57.9854 31.2897 57.8385 31.3649C57.8528 32.0852 57.8027 32.1676 57.817 32.3718C57.7203 32.5187 57.7095 32.9631 57.7668 33.1422C57.6593 33.2999 57.7668 33.5149 57.7812 33.6941C57.7561 33.6941 57.731 33.7084 57.7095 33.7192C57.8528 33.8159 57.8636 34.6329 57.8887 34.8013C57.9245 34.8121 57.9603 34.8264 57.9962 34.8372C58.1646 34.7547 58.1646 34.7547 58.2721 34.6078C58.8633 34.4179 58.9099 34.056 59.5012 34.3928C59.5585 34.9339 59.4044 35.7975 59.365 36.292C59.5478 36.5822 59.6445 36.8223 59.8846 37.0624C60.053 37.496 60.3898 37.5891 60.7983 37.7468V37.8292C60.87 37.7719 60.9417 37.7217 61.0133 37.6752C60.9775 37.4602 60.8951 37.3025 60.8091 36.9657C60.7016 36.7865 60.569 36.6288 60.569 36.4138C60.1498 35.8477 60.6908 35.7043 60.6908 35.1991C60.7123 35.174 60.7374 35.1632 60.7733 35.1489C60.7625 35.1023 60.7625 35.0665 60.7625 35.0307C60.9166 35.0307 61.5544 35.0916 61.6512 34.9948C61.9988 35.0414 62.4682 34.9948 62.805 34.9554C63.1168 34.9805 64.1273 35.0916 64.4139 34.9232C64.9944 34.9554 67.0011 34.6938 66.9402 35.1381C67.062 35.2815 67.0978 35.3531 67.0978 35.5359C67.2053 35.6434 67.2053 35.6434 67.3128 35.8727C67.5422 35.9086 67.7715 35.9552 68.0116 36.0017C68.0331 35.9552 68.0582 35.9086 68.0833 35.8727C67.9973 35.7402 67.6497 35.1381 67.4956 35.1381C67.3487 34.873 67.277 34.6078 67.0118 34.4537C67.0011 34.3821 66.9868 34.3068 66.9868 34.2495C66.7359 34.0452 66.1841 32.4471 66.2558 32.2034C66.1232 32.0708 66.0981 31.9633 66.0981 31.7734C65.9297 31.5548 65.7971 31.218 65.7398 30.9528C65.7039 30.9421 65.6788 30.9313 65.6538 30.9313C65.5821 30.7127 65.4029 30.4619 65.4603 30.2577C65.4029 30.1967 65.3528 30.1358 65.3062 30.0892C65.0912 29.6198 64.3566 27.8425 63.9588 27.7099C63.9481 27.6382 63.9338 27.5666 63.9338 27.5057C63.5038 27.2047 63.4178 26.6528 63.0558 26.3375C62.7333 26.3375 62.3141 25.4237 62.0131 25.2302C61.9629 25.0045 61.386 24.4276 61.2068 24.3917C61.1961 24.3308 61.1818 24.2699 61.171 24.2233C61.1352 24.209 61.0993 24.209 61.0743 24.209C60.9417 24.4634 60.7374 24.6892 60.7016 24.8002C60.2573 24.9687 60.1247 25.5456 59.7269 25.8107C59.3543 26.2658 59.236 26.3375 58.7057 27.0004C58.6806 26.9861 58.6591 26.9861 58.634 26.9861V26.9861ZM63.6471 31.4222C63.6363 31.4473 63.622 31.4724 63.622 31.5082C63.8979 31.7125 64.138 31.9167 64.138 32.3145C64.1738 32.3252 64.2097 32.336 64.2598 32.3611C64.2455 32.3969 64.2348 32.4327 64.224 32.4686C64.439 32.6155 64.7149 33.7084 64.6934 33.9951C64.6074 33.9951 64.525 34.0094 64.439 34.0202C64.4283 33.9843 64.4139 33.9485 64.4139 33.9234C64.3315 33.9485 64.2455 33.9843 64.1631 34.0202C63.9947 33.9342 63.7653 33.9951 63.6363 33.9127C63.5647 33.9843 61.9271 33.8625 61.8053 33.7908C61.7838 33.8052 61.7587 33.8159 61.7479 33.841C61.4577 33.6475 61.0133 33.8768 60.6658 33.7084C60.5332 33.755 60.5332 33.755 60.2788 33.7442C60.3397 33.3465 60.9417 32.723 61.3143 32.5904C61.3036 32.5402 61.3036 32.4937 61.3036 32.4578C61.5078 32.3252 61.5437 32.2392 61.6763 32.1926C61.988 31.7232 63.106 31.3147 63.6471 31.4222V31.4222Z" fill="white"/>
<path d="M64.8474 37.6752V37.625H64.8008V37.6752H64.8474Z" fill="white"/>
<path d="M18.6871 36.9657C18.6979 36.9764 18.7122 37.0015 18.723 37.0266H18.8448C18.7946 36.8797 18.6155 36.8331 18.5044 36.7256C18.5044 36.7973 18.5044 36.8689 18.5187 36.9513C18.5653 36.9513 18.6262 36.9513 18.6871 36.9657Z" fill="white"/>
<path d="M18.3861 36.7722C18.361 36.7615 18.3395 36.7507 18.3252 36.7507V36.8331C18.3395 36.8081 18.361 36.7866 18.3861 36.7722Z" fill="white"/>
<path d="M18.2787 36.593H18.207V36.6647H18.2787V36.593Z" fill="white"/>
<path d="M66.8795 30.666C66.8938 30.7269 66.9046 30.7986 66.9153 30.8703C67.2414 31.1963 67.3633 31.6407 67.5675 32.0599C67.7467 32.1674 67.9151 32.4075 67.89 32.6261C68.0477 32.7587 68.1552 32.902 68.2161 33.1063C68.6353 33.2388 68.6963 34.6793 68.8396 35.0663C69.008 35.0771 69.008 35.0771 69.2123 35.1488C69.223 35.138 69.2481 35.1273 69.2732 35.1129C69.3448 34.6793 69.4058 34.1024 69.223 33.6939C69.2373 33.6473 69.2481 33.5972 69.2624 33.5613C69.1298 33.3714 69.0797 33.2496 69.0582 33.0203C69.008 33.0095 68.9722 33.0095 68.9363 33.0095C68.9256 32.902 68.9005 32.8554 68.8288 32.7802V32.5652C68.7787 32.5544 68.7321 32.5401 68.6963 32.5293C68.6246 32.2176 68.3236 31.9775 68.105 31.7231C68.1767 31.6263 67.8434 30.8595 67.7467 30.7377C67.7467 30.3399 67.4206 29.9923 67.2163 29.6806C67.0013 29.6555 66.858 29.7021 66.6645 29.7523C66.6287 30.0174 66.6143 30.5334 66.8795 30.666Z" fill="white"/>
<path d="M28.6163 31.0997C28.6163 31.0245 28.6163 30.9671 28.6271 30.9062C28.7955 30.8596 29.2183 30.401 29.2183 30.2218C29.1323 30.2326 29.1323 30.2326 28.688 30.0283C28.6163 30.1143 28.6163 30.1143 28.5912 30.2935C28.473 30.4153 28.2329 30.8095 28.2329 30.9779C27.9785 31.0854 27.7276 31.0854 27.4517 31.0854C27.3765 30.8202 26.8748 30.1143 26.6204 29.971C26.6096 29.8957 26.2477 29.2722 26.1868 29.2471C26.0901 28.7419 25.2981 28.7061 24.8896 28.6953C24.9971 28.9354 25.42 29.584 25.6708 29.7022C25.7926 29.9566 26.1761 30.0892 26.1761 30.3759C26.2227 30.3759 26.2728 30.3759 26.3194 30.3902C26.4663 30.5945 27.1006 31.218 26.753 31.4831C26.7888 31.5548 26.7888 31.5548 26.753 32.0708H26.9931C27.0898 31.9418 27.1973 31.8092 27.3048 31.6766C27.6416 31.8451 27.4266 32.1819 27.5234 32.4936C27.4374 32.6155 27.3657 32.7445 27.2941 32.8771C27.1364 32.8771 27.0898 32.7946 26.9931 32.6979V32.5653C26.8856 32.5187 26.839 32.3969 26.7171 32.3969C26.7171 32.8305 27.0647 33.153 27.4123 33.4181C27.5449 33.3106 27.7133 32.9738 27.7742 32.9272C27.9785 32.9272 28.0752 33.1781 28.2186 33.2856C28.3046 33.2246 28.387 33.1673 28.473 33.1171C28.5088 32.8914 28.4013 32.1425 28.473 32.0708C28.4371 31.7483 28.4837 31.4366 28.5088 31.1105C28.5446 31.0997 28.5805 31.0997 28.6163 31.0997V31.0997Z" fill="white"/>
<path d="M54.2695 32.7446H54.3054V32.698H54.2695V32.7446Z" fill="white"/>
<path d="M54.4379 28.4767C54.3304 28.4301 54.3304 28.4301 53.9936 28.1183C52.5029 27.8639 52.7537 29.7989 52.958 30.6517C52.4778 31.0137 52.7322 31.7124 52.8039 32.1818C53.0547 32.3359 53.1156 32.4828 53.4166 32.5545C53.4274 32.6011 53.4417 32.6512 53.4632 32.6978C53.5241 32.6727 53.5958 32.6512 53.6675 32.6369C54.764 33.0454 54.7855 31.0387 54.5705 30.4869C54.5812 30.4152 54.5956 30.3543 54.6063 30.2934C54.979 29.7882 54.678 28.9712 54.4379 28.4767ZM54.162 31.8665C53.9936 31.9525 53.861 31.9632 53.7033 32.0242C53.6101 31.9525 53.6101 31.9525 53.4883 31.9525C53.4776 31.8916 53.4632 31.8307 53.4525 31.7841C53.0189 31.4974 53.3557 30.6159 53.9577 30.8345C54.0903 31.0137 54.0903 31.0137 54.2336 31.1212C54.2444 31.3648 54.2444 31.3648 54.162 31.8665V31.8665ZM54.2802 30.0282C54.1261 30.1357 54.0545 30.2217 53.861 30.2576C53.5134 30.0533 53.2733 29.8491 53.1658 29.4513C53.1981 28.9604 53.259 28.5161 53.861 28.5161C53.9685 28.5734 54.076 28.6343 54.1871 28.6952C54.1871 28.7311 54.1871 28.7669 54.1978 28.8027C54.2336 28.8135 54.2695 28.8278 54.3161 28.8386C54.4021 29.2471 54.4021 29.2471 54.4021 29.5481C54.2802 29.6663 54.2946 29.8491 54.2802 30.0282V30.0282Z" fill="white"/>
<path d="M40.925 31.7842H40.8784V31.82H40.925V31.7842Z" fill="white"/>
<path d="M45.6625 26.8427C45.2432 26.2766 44.8455 26.0723 44.1001 26.1476C43.9675 26.3518 43.5949 26.3267 43.4874 26.5417C42.7062 27.0828 43.0072 27.4698 42.9355 28.251C42.9821 28.3083 43.0323 28.3692 43.0789 28.4302C43.1398 28.7921 43.4766 28.8136 43.7633 29.0178C43.9425 28.8996 44.4835 28.9462 44.6663 28.9462C45.5442 28.5162 45.8201 27.8174 45.6625 26.8427V26.8427ZM45.168 27.4555C45.1465 27.4555 45.1214 27.4698 45.0963 27.4806C45.0963 27.5272 45.0963 27.5881 45.1106 27.649C44.8096 27.9715 44.8096 27.9715 44.7236 28.0073V28.0933H44.652V28.1757C44.4979 28.1757 44.437 28.165 44.2936 28.251C43.921 28.2008 43.8242 28.1399 43.559 27.9142V27.6382C43.534 27.6239 43.5125 27.6132 43.4874 27.6132C43.4874 27.2512 43.62 27.2047 43.7024 26.9502C43.8099 26.9037 43.835 26.832 43.8708 26.7209C44.1252 26.6027 44.376 26.4844 44.6663 26.5202C44.8096 26.6277 44.8096 26.6277 45.0139 26.6887C45.0139 26.9753 45.193 27.1079 45.168 27.4555Z" fill="white"/>
<path d="M41.1546 26.1476C41.1797 26.3734 41.3588 26.8786 41.5738 27.0219C41.6849 27.0112 41.7924 27.0004 41.8999 26.9861C41.9608 26.8786 42.0325 26.7209 42.1902 26.746C42.4661 26.5669 42.6703 25.9649 42.9355 25.6997C43.0538 25.3055 43.2007 25.0296 43.4623 24.7394C43.4515 24.7143 43.4372 24.6892 43.4264 24.6677C43.6558 24.3165 43.8815 23.9116 44.0392 23.5389C44.462 22.9011 44.9422 22.2167 45.3256 21.5645H45.4116C45.4833 21.3388 45.6875 20.9661 45.9742 20.9661C46.0243 21.1811 46.1211 21.3603 46.1928 21.5645C46.3361 22.5284 46.3612 23.4995 46.5296 24.4491C46.5045 24.4491 46.4794 24.4634 46.4543 24.4742L46.4938 24.7286H46.5762C46.5045 25.1622 46.6729 25.5564 46.6228 25.9649C46.8055 26.1476 46.913 27.8174 46.9023 28.2618C47.0563 28.3585 47.0707 28.4051 47.0922 28.5735C47.1782 28.5986 47.2749 28.6237 47.3681 28.6595C47.7658 28.5986 47.9235 28.6094 48.2245 28.3084C48.3929 27.8282 48.8731 27.0972 48.8731 26.5919C48.7298 26.5776 48.5828 26.5776 48.4395 26.5776C48.4288 26.5919 48.4144 26.6134 48.4037 26.6385C48.2818 26.6278 48.1636 26.6134 48.0561 26.6134C47.9092 26.3017 47.9092 26.3017 47.7909 26.1691C47.6942 25.7714 46.7446 23.0803 47.0814 22.7434C47.0456 22.6969 47.0098 22.661 46.9847 22.6252C47.0707 22.5034 47.0456 22.3242 46.9488 22.2274C47.0348 22.059 46.9847 21.0987 46.9847 20.8586C47.0707 20.6759 47.0707 20.6759 47.0707 20.4824C47.4792 19.8839 48.0418 19.3536 48.7047 19.0526C48.8588 18.8269 49.0164 18.6943 49.2458 18.5617C49.1848 18.4399 49.45 18.3216 49.5109 18.2858C49.6292 18.0206 49.8585 17.802 49.9051 17.4903C49.7259 17.4544 49.6184 17.4437 49.4751 17.3362C48.7298 17.3362 47.9593 16.9026 47.1782 16.8524C47.0707 16.7449 44.9278 16.3257 44.6663 16.4583C44.6663 16.5658 44.6663 16.5658 44.6161 16.6482C44.6304 16.6625 44.6412 16.684 44.6663 16.7091C44.6663 17.286 44.9278 17.8271 45.0748 18.3789C45.2647 18.6799 45.7843 19.7979 45.3507 20.0165C45.193 20.4465 44.7594 20.7117 44.6161 21.156C44.3653 21.3746 44.2076 21.8906 43.9675 22.0089C43.9568 22.0447 43.9568 22.0841 43.9568 22.1199C43.8098 22.2167 43.6808 22.3134 43.5483 22.4209C43.4766 22.6359 42.9212 23.4422 42.6811 23.4422C42.6094 23.8399 41.9967 23.9116 41.9967 24.2341C41.9358 24.2341 41.8892 24.2341 41.839 24.2449C41.8283 24.2807 41.8175 24.3165 41.8175 24.3559C41.4556 24.51 41.1188 24.7859 40.7568 24.8827C40.8178 25.327 40.9396 25.714 41.0328 26.1476H41.1546V26.1476ZM48.6903 17.7196C48.7047 17.7196 48.7298 17.7304 48.7513 17.7447C48.7298 17.7554 48.7047 17.7662 48.6903 17.7913V17.7196ZM46.5654 17.7304C47.0563 17.7913 47.5508 17.9489 48.031 18.0206V18.1639C47.6225 18.5115 47.3215 18.9451 46.8772 19.2819C46.8664 19.3178 46.8521 19.3536 46.8521 19.4002H46.7338C46.6228 19.2461 46.4078 17.888 46.5654 17.7304Z" fill="white"/>
<path d="M38.2951 18.4183C38.3561 18.5007 38.3776 18.73 38.4492 18.8841C38.3668 19.4718 38.6535 20.1096 38.6893 20.7116C38.786 21.2312 38.9294 21.9156 38.847 22.4424C38.9079 22.7792 39.087 24.8826 38.847 25.1227C38.8577 25.137 38.8828 25.1478 38.9079 25.1729C38.9079 25.5706 38.546 25.7856 38.245 26.0149C38.3166 26.3984 38.8577 26.7818 38.8577 27.1079C39.1587 27.1795 39.4131 27.889 39.6532 28.1291C39.6532 28.3226 39.8431 28.5161 40.0008 28.6093C40.3842 28.5018 39.9399 24.9543 40.0474 24.3415C40.0259 24.3164 39.9757 22.8401 40.0617 22.7541C39.8575 21.6146 39.9291 20.3497 39.8575 19.1959C39.8682 19.1744 39.8825 19.1493 39.904 19.1385C39.7965 18.9916 39.9184 18.7909 39.7715 18.644C39.7141 17.7446 39.6532 16.8416 39.603 15.9529C39.4705 15.9279 39.4705 15.9279 38.9795 15.9637C38.9795 15.9279 38.9903 15.892 39.0046 15.8669C38.7753 15.9279 38.3059 15.9279 38.0049 15.9888C38.0192 15.9995 38.0407 16.0139 38.0658 16.0354C38.1016 16.7341 38.4026 17.8378 38.2951 18.4183ZM39.9184 28.0574H39.965V28.0933H39.9184V28.0574Z" fill="white"/>
<path d="M39.965 28.0574H39.9185V28.0932H39.965V28.0574Z" fill="white"/>
<path d="M40.9609 27.7673V27.8175H40.9968V27.7673H40.9609Z" fill="white"/>
<path d="M49.2818 23.0694C49.2352 23.5961 49.848 24.0799 50.2923 24.2949C50.3855 24.6425 51.0233 24.9184 51.3494 24.9936C51.3601 25.0151 51.3745 25.051 51.3852 25.0868C51.482 25.0653 51.482 25.0653 51.697 25.1226V25.2086C51.8403 25.1836 51.8403 25.1836 52.0589 25.2445C52.6358 25.1477 53.632 25.2803 54.0405 24.75C54.0906 23.8864 54.0906 23.8864 54.1372 23.8255C54.0297 23.5603 54.019 23.2593 53.9939 22.9726C54.019 22.9583 54.0405 22.9476 54.0656 22.9368C54.0405 22.9225 54.019 22.9117 53.9939 22.9117C53.9581 22.6609 53.8004 22.3957 53.8004 22.1198C54.1623 21.8654 55.1011 22.8866 55.4953 23.0192C55.5096 23.0801 55.5204 23.1411 55.5455 23.202C55.868 23.3095 55.8931 23.2736 56.1582 23.5496C56.2191 23.5603 56.2765 23.5746 56.3374 23.5854C56.3481 23.6356 56.3625 23.6821 56.3876 23.7287C56.4341 23.7287 56.4807 23.7287 56.5416 23.7431C56.6276 23.9115 56.986 24.0405 57.1687 24.1014C57.5414 23.8255 58.8851 23.9581 59.0894 23.5496C58.9568 23.4636 58.8851 23.331 58.7311 23.2378C58.7167 23.1769 58.7167 23.1267 58.7167 23.0801C58.405 23.0192 57.9714 22.6251 57.7922 22.3706C57.6847 22.4208 56.9394 21.6755 56.7208 21.6755C56.6742 21.5286 56.5775 21.4927 56.4341 21.4676C56.2765 21.2311 56.1224 21.1559 55.868 21.0126C55.4236 20.4966 54.6568 20.2206 54.1265 19.7405C53.9079 19.7405 53.1411 19.9806 52.9834 20.1346H52.7541C52.4423 20.4464 51.8761 20.3281 51.9621 20.8441C51.9872 20.8585 52.0123 20.8692 52.0338 20.88C52.1198 21.1559 52.1198 21.1559 52.1198 21.3386C52.4781 21.6504 52.299 22.7935 52.2739 23.116C51.7328 23.7646 51.0126 23.7072 50.2314 23.4779C50.2171 23.4421 50.2063 23.4062 50.1956 23.3811C49.8336 23.2736 49.7011 23.2378 49.4395 22.9726C49.3786 22.9977 49.3284 23.0336 49.2818 23.0694V23.0694Z" fill="white"/>
<path d="M33.7015 18.6692C33.594 18.6441 33.594 18.6441 33.533 18.705C33.4255 18.6943 33.4255 18.6943 33.2464 18.7409C33.0887 18.8985 31.7414 19.3787 31.4547 19.3787C30.9244 19.6188 30.756 19.7513 30.3833 19.9305C30.0608 19.9663 29.7455 20.124 29.5197 20.3498C29.4086 20.7833 29.1112 21.4319 29.3728 21.8655H29.577C30.025 21.543 30.9495 21.6003 31.4655 21.6254C31.598 21.6756 31.7306 21.7222 31.8632 21.7831C32.0316 21.9873 32.2 22.1916 32.3792 22.4066C32.3541 22.5392 32.3685 22.575 32.4401 22.6825C32.4401 23.5138 31.4189 23.6464 30.8885 24.0657C30.8276 24.0549 30.8276 24.0549 30.6843 24.1266C30.6843 24.3774 30.7201 24.4885 30.781 24.6892C31.383 24.5709 32.0567 24.4993 32.6085 24.2233C33.1604 24.2807 33.9523 23.8865 34.3035 23.4637C34.626 23.3096 34.9269 22.7327 35.0129 22.36C35.0129 21.6254 34.0992 21.3961 33.5581 21.1811C33.508 21.1811 33.4614 21.1811 33.4255 21.1918C33.4005 21.1453 33.379 21.0987 33.3539 21.0628H33.0636C33.0421 21.0234 33.017 21.0019 33.0063 20.9768C32.7411 20.9661 32.5727 20.9052 32.3434 20.8443C32.4258 20.7009 33.6154 20.3498 33.8448 20.3498C34.5184 20.0165 35.4824 20.038 36.131 19.6546C36.4069 19.1744 36.4284 18.3324 36.5394 17.7805C36.5394 17.7805 33.8233 18.4184 33.7015 18.6692Z" fill="white"/>
<path d="M29.5407 18.6584C29.5551 18.6692 29.5658 18.6942 29.5766 18.7157C29.7593 18.6333 30.4079 18.6082 30.4545 18.5366C30.8272 18.4398 31.1998 18.0313 31.551 18.0313V17.9238C31.981 17.8378 32.3322 17.1642 32.8374 17.0817C32.9342 16.7915 33.8802 16.5657 34.0844 16.6625C34.0987 16.6374 34.1238 16.6231 34.1453 16.6123C34.4105 16.6231 34.6757 16.6374 34.9516 16.6482C35.0842 16.4797 35.1307 16.3472 35.1558 16.1071C34.8799 16.0963 33.1492 15.8562 33.0273 16.0497C32.0777 16.254 31.7409 17.0925 30.8881 17.4544C30.4545 17.888 28.6628 17.6587 29.1573 18.6441C29.2792 18.6441 29.4082 18.6441 29.5407 18.6584V18.6584ZM34.7473 16.3472H34.8297V16.3973H34.7473V16.3472Z" fill="white"/>
<path d="M48.7513 17.7448C48.7298 17.7305 48.7048 17.7197 48.6904 17.7197V17.7914C48.7048 17.7663 48.7298 17.7556 48.7513 17.7448Z" fill="white"/>
<path d="M34.83 16.3472H34.7476V16.3973H34.83V16.3472Z" fill="white"/>
</svg>
