<svg width="86" height="86" viewBox="0 0 86 86" fill="none" xmlns="http://www.w3.org/2000/svg">
<path d="M43 16.9648C28.6442 16.9648 16.9648 28.6442 16.9648 43C16.9648 57.3558 28.6442 69.0352 43 69.0352C57.3558 69.0352 69.0352 57.3558 69.0352 43C69.0352 28.6442 57.3558 16.9648 43 16.9648ZM43 63.9961C31.4228 63.9961 22.0039 54.5772 22.0039 43C22.0039 31.4228 31.4228 22.0039 43 22.0039C54.5772 22.0039 63.9961 31.4228 63.9961 43C63.9961 54.5772 54.5772 63.9961 43 63.9961Z" fill="white"/>
<path d="M53.0781 30.4023H32.9219C31.5304 30.4023 30.4023 31.5304 30.4023 32.9219V53.0781C30.4023 54.4696 31.5304 55.5977 32.9219 55.5977H53.0781C54.4696 55.5977 55.5977 54.4696 55.5977 53.0781V32.9219C55.5977 31.5304 54.4696 30.4023 53.0781 30.4023ZM50.5586 50.5586H35.4414V35.4414H40.4805V37.9609C40.4805 39.3524 41.6085 40.4805 43 40.4805C44.3915 40.4805 45.5195 39.3524 45.5195 37.9609V35.4414H50.5586V50.5586Z" fill="white"/>
<path d="M83.4805 33.7617H77.9177C77.0941 30.6425 75.8537 27.6584 74.2138 24.851L78.1565 20.9084C78.629 20.4359 78.8946 19.7951 78.8946 19.1268C78.8946 18.4586 78.629 17.8178 78.1565 17.3453L68.6549 7.84364C67.6711 6.85968 66.0757 6.85968 65.0918 7.84364L61.149 11.7864C58.3414 10.1463 55.3575 8.90604 52.2383 8.08249V2.51953C52.2383 1.12808 51.1102 0 49.7188 0H36.2812C34.8898 0 33.7617 1.12808 33.7617 2.51953V8.08249C30.6425 8.90604 27.6586 10.1463 24.8511 11.7862L20.9084 7.84347C19.9246 6.85951 18.3293 6.85951 17.3453 7.84347L7.84364 17.3451C7.37114 17.8176 7.10558 18.4584 7.10558 19.1266C7.10558 19.7949 7.37114 20.4356 7.84364 20.9082L11.7864 24.8508C10.1463 27.6586 8.90604 30.6425 8.08249 33.7617H2.51953C1.12808 33.7617 0 34.8898 0 36.2812V49.7188C0 51.1102 1.12808 52.2383 2.51953 52.2383H8.08232C8.90587 55.3575 10.1463 58.3414 11.7862 61.1489L7.84347 65.0914C7.37097 65.5639 7.10541 66.2047 7.10541 66.8731C7.10541 67.5412 7.3708 68.182 7.84347 68.6545L17.3451 78.1564C17.8176 78.6289 18.4584 78.8944 19.1266 78.8944C19.7948 78.8944 20.4356 78.6289 20.9081 78.1564L24.8508 74.2136C27.6582 75.8535 30.6422 77.0938 33.7614 77.9175V83.4805C33.7614 84.8719 34.8895 86 36.2809 86H49.7184C51.1099 86 52.2379 84.8719 52.2379 83.4805V77.9177C55.3571 77.0941 58.3411 75.8537 61.1485 74.2138L65.0912 78.1565C65.5637 78.629 66.2045 78.8946 66.8727 78.8946C67.5411 78.8946 68.1817 78.629 68.6542 78.1565L78.1559 68.6547C78.6284 68.1822 78.8939 67.5414 78.8939 66.8732C78.8939 66.2049 78.6284 65.5643 78.1559 65.0916L74.2131 61.149C75.853 58.3416 77.0933 55.3576 77.917 52.2385H83.4805C84.8719 52.2385 86 51.1104 86 49.7189V36.2814C86 34.8898 84.8719 33.7617 83.4805 33.7617V33.7617ZM80.9609 47.1992H75.9192C74.7209 47.1992 73.6884 48.0431 73.45 49.2175C72.6608 53.1055 71.1358 56.7755 68.9174 60.1253C68.256 61.1242 68.3893 62.4508 69.2366 63.298L72.8118 66.8731L66.8732 72.8116L63.298 69.2364C62.4509 68.3891 61.1243 68.2558 60.1254 68.9172C56.7755 71.1356 53.1057 72.6606 49.2177 73.4499C48.0434 73.6882 47.1994 74.7207 47.1994 75.919V80.9609H38.801V75.9192C38.801 74.7209 37.9571 73.6884 36.7826 73.45C32.8947 72.6608 29.2247 71.1358 25.8749 68.9174C24.8758 68.2558 23.5494 68.3893 22.7023 69.2366L19.1271 72.8118L13.1886 66.8732L16.7638 63.2982C17.611 62.4509 17.7444 61.1245 17.0829 60.1254C14.8646 56.7755 13.3396 53.1057 12.5503 49.2177C12.3116 48.0433 11.2791 47.1992 10.0808 47.1992H5.03906V38.8008H10.0808C11.2791 38.8008 12.3116 37.9569 12.55 36.7825C13.3392 32.8945 14.8642 29.2244 17.0826 25.8746C17.7441 24.8757 17.6107 23.5491 16.7634 22.7018L13.1882 19.1268L19.1268 13.1882L22.702 16.7634C23.5491 17.6107 24.8755 17.7441 25.8746 17.0826C29.2245 14.8642 32.8943 13.3392 36.7823 12.5501C37.9569 12.3116 38.8008 11.2791 38.8008 10.081V5.03906H47.1992V10.081C47.1992 11.2793 48.0431 12.3118 49.2175 12.5501C53.1053 13.3394 56.7753 14.8644 60.1253 17.0826C61.1242 17.7441 62.4508 17.6107 63.2978 16.7634L66.8731 13.1882L72.8116 19.1268L69.2364 22.7018C68.3891 23.5491 68.2558 24.8755 68.9172 25.8746C71.1356 29.2245 72.6606 32.8945 73.4499 36.7825C73.6882 37.9567 74.7207 38.8008 75.919 38.8008H80.9609V47.1992Z" fill="white"/>
</svg>
